<svg width="21" height="20" viewBox="0 0 21 20" fill="none" xmlns="http://www.w3.org/2000/svg">
<path opacity="0.5" d="M10.9237 20C5.40071 20 0.923706 15.523 0.923706 10C0.923706 4.477 5.40071 0 10.9237 0C16.4467 0 20.9237 4.477 20.9237 10C20.9237 15.523 16.4467 20 10.9237 20ZM7.42371 12V14H9.92371V16H11.9237V14H12.9237C13.5867 14 14.2226 13.7366 14.6915 13.2678C15.1603 12.7989 15.4237 12.163 15.4237 11.5C15.4237 10.837 15.1603 10.2011 14.6915 9.73223C14.2226 9.26339 13.5867 9 12.9237 9H8.92371C8.7911 9 8.66392 8.94732 8.57016 8.85355C8.47639 8.75979 8.42371 8.63261 8.42371 8.5C8.42371 8.36739 8.47639 8.24021 8.57016 8.14645C8.66392 8.05268 8.7911 8 8.92371 8H14.4237V6H11.9237V4H9.92371V6H8.92371C8.26067 6 7.62478 6.26339 7.15594 6.73223C6.6871 7.20107 6.42371 7.83696 6.42371 8.5C6.42371 9.16304 6.6871 9.79893 7.15594 10.2678C7.62478 10.7366 8.26067 11 8.92371 11H12.9237C13.0563 11 13.1835 11.0527 13.2773 11.1464C13.371 11.2402 13.4237 11.3674 13.4237 11.5C13.4237 11.6326 13.371 11.7598 13.2773 11.8536C13.1835 11.9473 13.0563 12 12.9237 12H7.42371Z" fill="#161513"/>
</svg>
