<svg width="18" height="16" viewBox="0 0 18 16" fill="none" xmlns="http://www.w3.org/2000/svg">
<path opacity="0.5" d="M0.915742 0H16.9157C17.1515 0 17.3776 0.0936507 17.5443 0.260349C17.711 0.427049 17.8047 0.653141 17.8047 0.888887V15.1111C17.8047 15.3469 17.711 15.5729 17.5443 15.7397C17.3776 15.9063 17.1515 16 16.9157 16H0.915742C0.679996 16 0.453904 15.9063 0.287205 15.7397C0.120506 15.5729 0.0268555 15.3469 0.0268555 15.1111V0.888887C0.0268555 0.653141 0.120506 0.427049 0.287205 0.260349C0.453904 0.0936507 0.679996 0 0.915742 0ZM8.96905 7.7182L3.26952 2.87822L2.11841 4.23289L8.98065 10.0595L15.7193 4.22845L14.5567 2.88355L8.96999 7.7182H8.96905Z" fill="#161513"/>
</svg>
