<svg width="19" height="16" viewBox="0 0 19 16" fill="none" xmlns="http://www.w3.org/2000/svg">
<path opacity="0.5" d="M1.16892 0H17.1689C17.4047 0 17.6308 0.0936507 17.7974 0.260349C17.9642 0.427049 18.0578 0.653141 18.0578 0.888887V15.1111C18.0578 15.3469 17.9642 15.5729 17.7974 15.7397C17.6308 15.9063 17.4047 16 17.1689 16H1.16892C0.93317 16 0.707078 15.9063 0.540379 15.7397C0.37368 15.5729 0.280029 15.3469 0.280029 15.1111V0.888887C0.280029 0.653141 0.37368 0.427049 0.540379 0.260349C0.707078 0.0936507 0.93317 0 1.16892 0ZM9.22223 7.7182L3.5227 2.87822L2.37158 4.23289L9.23383 10.0595L15.9725 4.22845L14.8098 2.88355L9.22316 7.7182H9.22223Z" fill="#F0F2F5"/>
</svg>
