<svg width="21" height="20" viewBox="0 0 21 20" fill="none" xmlns="http://www.w3.org/2000/svg">
<path opacity="0.5" d="M10.1769 20C4.65388 20 0.17688 15.523 0.17688 10C0.17688 4.477 4.65388 0 10.1769 0C15.6999 0 20.1769 4.477 20.1769 10C20.1769 15.523 15.6999 20 10.1769 20ZM6.67688 12V14H9.17688V16H11.1769V14H12.1769C12.8399 14 13.4758 13.7366 13.9447 13.2678C14.4135 12.7989 14.6769 12.163 14.6769 11.5C14.6769 10.837 14.4135 10.2011 13.9447 9.73223C13.4758 9.26339 12.8399 9 12.1769 9H8.17688C8.04427 9 7.91709 8.94732 7.82333 8.85355C7.72956 8.75979 7.67688 8.63261 7.67688 8.5C7.67688 8.36739 7.72956 8.24021 7.82333 8.14645C7.91709 8.05268 8.04427 8 8.17688 8H13.6769V6H11.1769V4H9.17688V6H8.17688C7.51384 6 6.87795 6.26339 6.40911 6.73223C5.94027 7.20107 5.67688 7.83696 5.67688 8.5C5.67688 9.16304 5.94027 9.79893 6.40911 10.2678C6.87795 10.7366 7.51384 11 8.17688 11H12.1769C12.3095 11 12.4367 11.0527 12.5305 11.1464C12.6242 11.2402 12.6769 11.3674 12.6769 11.5C12.6769 11.6326 12.6242 11.7598 12.5305 11.8536C12.4367 11.9473 12.3095 12 12.1769 12H6.67688Z" fill="#F0F2F5"/>
</svg>
