<svg width="31" height="32" viewBox="0 0 31 32" fill="none" xmlns="http://www.w3.org/2000/svg">
<path d="M30.72 23.5433V29.5781C30.7203 30.0103 30.5565 30.4263 30.2619 30.7424C29.9674 31.0586 29.5638 31.2511 29.1328 31.2814C28.3869 31.3326 27.7777 31.3599 27.3066 31.3599C12.2249 31.3599 0 19.135 0 4.05323C0 3.58219 0.0256 2.97291 0.0785066 2.22709C0.108753 1.79606 0.301366 1.39255 0.617478 1.09798C0.933591 0.803402 1.34967 0.639697 1.78176 0.639893H7.81654C8.02822 0.639679 8.23245 0.718159 8.3895 0.860087C8.54657 1.00202 8.64529 1.19726 8.66646 1.40789C8.7057 1.80043 8.74154 2.11275 8.77568 2.34997C9.11485 4.71699 9.80992 7.01913 10.8373 9.17835C10.9995 9.51968 10.8937 9.92757 10.5865 10.146L6.90346 12.7777C9.15533 18.0247 13.3368 22.2062 18.5839 24.4581L21.2122 20.782C21.3196 20.6318 21.4764 20.5241 21.655 20.4776C21.8337 20.4311 22.023 20.4488 22.1901 20.5276C24.3491 21.5532 26.6506 22.2465 29.0167 22.5842C29.254 22.6184 29.5663 22.6559 29.9555 22.6934C30.1658 22.715 30.3606 22.8138 30.5021 22.9709C30.6437 23.128 30.7219 23.332 30.7217 23.5433H30.72Z" fill="url(#paint0_linear_228_704)"/>
<defs>
<linearGradient id="paint0_linear_228_704" x1="-1.55181e-07" y1="15.9523" x2="30.7217" y2="15.9523" gradientUnits="userSpaceOnUse">
<stop offset="0.140625" stop-color="#B16CEA"/>
<stop offset="0.447917" stop-color="#FF5E69"/>
<stop offset="0.71875" stop-color="#FF8A56"/>
<stop offset="1" stop-color="#FFA84B"/>
</linearGradient>
</defs>
</svg>
