<svg width="137" height="52" viewBox="0 0 137 52" fill="none" xmlns="http://www.w3.org/2000/svg">
<path d="M27.432 41.5595H6.912C4.896 41.5595 3.336 41.1275 2.232 40.2635C1.128 39.3995 0.576 38.1515 0.576 36.5195V34.5035L27.36 0.807516H37.368V32.7755H43.704V41.5595H37.368V51.2075H27.432V41.5595ZM27.72 33.2075V13.2635H27.648L11.88 33.2075H27.72ZM65.3108 51.7835C61.9508 51.7835 58.9748 51.0635 56.3828 49.6235C53.7908 48.1355 51.7748 46.0475 50.3348 43.3595C48.8948 40.6715 48.1748 37.5755 48.1748 34.0715V17.9435C48.1748 14.4395 48.8708 11.3435 50.2628 8.65552C51.7028 5.96752 53.7188 3.90352 56.3108 2.46352C58.9028 0.975518 61.9028 0.231519 65.3108 0.231519H72.9428C76.2548 0.231519 79.1828 0.975518 81.7267 2.46352C84.2708 3.90352 86.2388 5.96752 87.6308 8.65552C89.0708 11.3435 89.7908 14.4395 89.7908 17.9435V34.0715C89.7908 37.5755 89.0948 40.6715 87.7028 43.3595C86.3108 46.0475 84.3428 48.1355 81.7988 49.6235C79.2548 51.0635 76.3028 51.7835 72.9428 51.7835H65.3108ZM72.7988 42.9995C74.9108 42.9995 76.5908 42.2075 77.8388 40.6235C79.1348 38.9915 79.7828 36.8555 79.7828 34.2155V17.7995C79.7828 15.1595 79.1348 13.0475 77.8388 11.4635C76.5908 9.83152 74.9108 9.01552 72.7988 9.01552H65.4548C63.2468 9.01552 61.4708 9.83152 60.1268 11.4635C58.7828 13.0475 58.1108 15.1595 58.1108 17.7995V34.2155C58.1108 36.8555 58.7828 38.9915 60.1268 40.6235C61.4708 42.2075 63.2468 42.9995 65.4548 42.9995H72.7988ZM120.666 41.5595H100.146C98.1304 41.5595 96.5704 41.1275 95.4664 40.2635C94.3624 39.3995 93.8104 38.1515 93.8104 36.5195V34.5035L120.594 0.807516H130.602V32.7755H136.938V41.5595H130.602V51.2075H120.666V41.5595ZM120.954 33.2075V13.2635H120.882L105.114 33.2075H120.954Z" fill="white"/>
</svg>