<?xml version="1.0" standalone="yes"?>
<svg xmlns="http://www.w3.org/2000/svg" width="320" height="300">
<path style="fill:#272e33; stroke:none;" d="M0 0L0 87C7.36327 86.3978 13.4947 82.2775 21 83.6157C32.1761 85.6085 46.5214 94.7461 58.0008 92.4097C75.4523 88.8578 88.9283 74.1543 105 67L126 73.0039L149.196 86.2284L154 98L154 101C130.67 101 107.309 103 84 103C77.2092 103 64.8153 106.919 61 100L42 97.0401L0 94L0 100L36 102L36 106L0 106L0 109L50 111C51.5988 116.55 55.1683 121.364 56.4707 127C60.961 146.431 61.9868 170.09 62 190C56.9961 185.277 52.1972 179.746 50.1744 173C47.3336 163.525 48.6305 152.622 41.4707 144.885C34.2272 137.058 17.6507 137.707 12 147L10 143C4.13371 144.786 2.37587 139.974 1 135L0 135L0 200C5.90431 198.076 12.449 197.093 13 190L14 190L16.7423 202.972L38 204.039L99 205L99 204L81.0008 203.272L64 191L107 188C105.948 191.982 106.392 195.074 111 195L107 205C108.699 203.726 111.541 202.708 108 202L108 201L113 202L115 196L116 196L119 212L117 212L116 209L115 209L111.098 220.04L113 238L118 238C112.968 247 110.475 261.838 99 248L98 248C94.7064 259.433 87.8004 261.497 80.375 269.174C71.0888 278.776 67.3975 287.132 65 300L296 300L296 299C290.717 294.92 283.122 283.663 281.731 277C280.237 269.839 285.374 265.49 277 261L277 254L275 256L264 244L263 244L264 253L263 253L256 248L256 249C259.562 252.064 264.397 261.833 261.213 266.505C258.065 271.124 254.137 271.727 253 278L226.148 265.566L220.347 253.028L210 251.91L181 251L184 225C202.058 230.951 208 212.971 208 199C218.912 197.622 223.276 201.636 224 213L231 211L231 204C233.384 207.556 243.258 210.884 244 205L245 204L251 205L243 218L255 215L257 191L265 192L264 217L291 204L297.189 216.985L320 250L320 217L318 204L318 203L320 189L320 152L320 0L0 0z"/>
<path style="fill:#667187; stroke:none;" d="M10 84L10 85C18.8648 85.0245 25.9743 87.3218 31 95L17 96L17 97L43 97.1852L61 100C63.4134 107.272 76.9403 103.002 83 103C106.65 102.991 130.337 101 154 101L154 98C151.932 94.2821 152.397 89.6567 149.852 86.2284C145.226 79.9967 130.338 73.9604 123 71.2685C116.944 69.0471 110.12 71.4522 105 67C87.575 72.5833 75.3355 89.4527 57.0394 92.1273C41.0445 94.4655 26.5274 80.0652 10 84M8 85L9 86L8 85z"/>
<path style="fill:#9c6b5a; stroke:none;" d="M6 86L6 87L18.9097 89.5332L31 95C26.4662 84.9916 15.6185 84.2143 6 86z"/>
<path style="fill:#667187; stroke:none;" d="M4.66667 86.3333L5.33333 86.6667L4.66667 86.3333M0.666667 87.3333L1.33333 87.6667L0.666667 87.3333z"/>
<path style="fill:#9c6b5a; stroke:none;" d="M0 90L4 87L0 90z"/>
<path style="fill:#899091; stroke:none;" d="M28 96C21.7136 90.3978 16.6137 87.7704 8.03935 87.3395C5.47418 87.2106 -0.482442 88.8449 0.750772 92.6242C2.74142 98.7248 22.9978 96 28 96z"/>
<path style="fill:#9c6b5a; stroke:none;" d="M1 94L2 95L1 94z"/>
<path style="fill:#667187; stroke:none;" d="M5 95L6 96L5 95M6.66667 96.3333L7.33333 96.6667L6.66667 96.3333M24 98L24 99L39 99L24 98M40 98L42 106L43 106L43 98L40 98z"/>
<path style="fill:#899091; stroke:none;" d="M42 99L43 104L45 99L42 99z"/>
<path style="fill:#667187; stroke:none;" d="M45 99L44 106C46.9822 103.911 48.075 101.491 45 99M0 100L0 101L3 101L0 100z"/>
<path style="fill:#899091; stroke:none;" d="M0 101L0 104L4 104L4 105L0 105L0 106L27 105L27 102L0 101z"/>
<path style="fill:#9c6b5a; stroke:none;" d="M17.6667 101.333L18.3333 101.667L17.6667 101.333z"/>
<path style="fill:#667187; stroke:none;" d="M19 101L19 102L26 102L19 101M48 101L55 120L56 120L57 111L55 112C56.0596 105.742 54.4916 102.189 48 101z"/>
<path style="fill:#9c6b5a; stroke:none;" d="M26 103L26 104L35 104L26 103z"/>
<path style="fill:#667187; stroke:none;" d="M30 102L30 103L35 103L35 104L12 105L12 106L36 106L36 102L30 102z"/>
<path style="fill:#ced2d4; stroke:none;" d="M0 104L0 105L4 105L0 104z"/>
<path style="fill:#272e33; stroke:none;" d="M52 104L53 105L52 104z"/>
<path style="fill:#9c6b5a; stroke:none;" d="M10.6667 105.333L11.3333 105.667L10.6667 105.333z"/>
<path style="fill:#272e33; stroke:none;" d="M53.6667 106.333L54.3333 106.667L53.6667 106.333z"/>
<path style="fill:#667187; stroke:none;" d="M35 107L36 108L35 107M41.6667 107.333L42.3333 107.667L41.6667 107.333M82 107L82 109L85 109L85 107L82 107M80 108L81 109L80 108M156 108L157 109L156 108M157 109L157 110L164 109L157 109z"/>
<path style="fill:#899091; stroke:none;" d="M164 108L162 109L162 110L164 108z"/>
<path style="fill:#667187; stroke:none;" d="M165 108L165 110L167 110L165 108z"/>
<path style="fill:#899091; stroke:none;" d="M0 109L0 116C8.20075 118.164 16.8774 117.703 23 111L0 109z"/>
<path style="fill:#9c6b5a; stroke:none;" d="M5 109L5 110L9 110L5 109z"/>
<path style="fill:#667187; stroke:none;" d="M9 109L9 110L15 110L9 109z"/>
<path style="fill:#272e33; stroke:none;" d="M53 109L54 110L53 109z"/>
<path style="fill:#899091; stroke:none;" d="M159.667 109.333L160.333 109.667L159.667 109.333z"/>
<path style="fill:#9c6b5a; stroke:none;" d="M20 110L20 111L23 111C15.4085 116.854 9.07656 117.512 0 116C0.000627629 121.686 0.262791 124.631 4 129L5 129L13 129L32 118L33 111L20 110z"/>
<path style="fill:#667187; stroke:none;" d="M23 110L23 111L32 111L23 110z"/>
<path style="fill:#899091; stroke:none;" d="M55.3333 110.667L55.6667 111.333L55.3333 110.667z"/>
<path style="fill:#667187; stroke:none;" d="M61 110L61 111L66 112L66 111L61 110M115 110L115 114L116 114L115 110z"/>
<path style="fill:#899091; stroke:none;" d="M116 110L116 111L120 111L116 110z"/>
<path style="fill:#ced2d4; stroke:none;" d="M116 111L116 114L135 114C132.728 107.156 121.602 110.292 116 111z"/>
<path style="fill:#899091; stroke:none;" d="M134 110L135 111L134 110z"/>
<path style="fill:#667187; stroke:none;" d="M137 110L138 111L137 110z"/>
<path style="fill:#899091; stroke:none;" d="M138.667 110.333L139.333 110.667L138.667 110.333z"/>
<path style="fill:#667187; stroke:none;" d="M140 110L141 111L140 110z"/>
<path style="fill:#ced2d4; stroke:none;" d="M157 110L157 116L93 117L93 111L85 112C85.3957 116.57 83.3308 117.669 79 118L79 112L59 113C61.5513 119.037 65.0162 124.47 72 125C71.1479 130.731 73.6586 132.701 79 134L79 124L86 124C86.4114 133.557 91.7405 138.034 96 146L106 144L106 152L98 153L97 148L96 148C91.4751 161.048 86.7384 170.975 91 185L114 183L115 178L116 175L116 174L113 174L113 167C122.506 166.691 128.115 157.508 135 152L135 151L127 151L127 143L135 143L136 151C141.381 149.067 150.338 138.815 155 146C157.531 145.521 175.374 146.099 172 150L172 151C179.299 152.734 186.846 155.304 191.235 161.715C194.947 167.139 198.16 178.313 203.498 181.972C209.903 186.362 226.394 184 234 184L234 180L252 181L249 185L249 186L256 186L262 113L248 112L248 118C242.657 118 235.371 119.262 236 112C211.126 107.382 182.324 110 157 110z"/>
<path style="fill:#899091; stroke:none;" d="M191 110L191 111L206 111L191 110z"/>
<path style="fill:#667187; stroke:none;" d="M206 110L206 111L218 111L206 110M219 110L219 111L222 111L219 110M250.667 110.333L251.333 110.667L250.667 110.333M253 110L253 111L256 111L253 110M32 112L32 118C26.9791 118.084 16.0932 125.151 13 129L5 129L4 129L0 126C0.00419182 132.33 0.483905 146.607 10 143L12 147C20.4072 137.067 36.0236 137.348 43.5208 148.285C52.8245 161.859 46.2892 179.351 62 190C61.9971 163.807 60.0154 135.056 50 111L32 112z"/>
<path style="fill:#899091; stroke:none;" d="M61.6667 111.333L62.3333 111.667L61.6667 111.333z"/>
<path style="fill:#667187; stroke:none;" d="M71 111L72 112L71 111M73 111L73 112L76 112L73 111z"/>
<path style="fill:#899091; stroke:none;" d="M76 111L76 112L79 112L76 111M85 111L86 112L85 111z"/>
<path style="fill:#667187; stroke:none;" d="M97 114L101 113C98.866 111.144 97.6393 111.077 97 114z"/>
<path style="fill:#899091; stroke:none;" d="M233 111L233 112L236 112L233 111M250.667 111.333L251.333 111.667L250.667 111.333M253 111L253 112L256 112L253 111z"/>
<path style="fill:#667187; stroke:none;" d="M259 113L262 113L261 111L259 113z"/>
<path style="fill:#899091; stroke:none;" d="M56 112L58 117L59 117L60 114L56 112z"/>
<path style="fill:#667187; stroke:none;" d="M58 112L57 114L59 114L58 112z"/>
<path style="fill:#899091; stroke:none;" d="M59.6667 112.333L60.3333 112.667L59.6667 112.333z"/>
<path style="fill:#667187; stroke:none;" d="M138 112L138 114L140 114L140 112L138 112z"/>
<path style="fill:#899091; stroke:none;" d="M256 112L256 113L259 113L256 112M85 113L85 117L86 117L85 113z"/>
<path style="fill:#667187; stroke:none;" d="M93 113L93 116L94 116L93 113z"/>
<path style="fill:#899091; stroke:none;" d="M235 113L235 117L236 117L235 113z"/>
<path style="fill:#667187; stroke:none;" d="M262 113L262 117L263 117L262 113z"/>
<path style="fill:#272e33; stroke:none;" d="M58 114L59 115L58 114z"/>
<path style="fill:#899091; stroke:none;" d="M116 114L116 115L122 115L116 114z"/>
<path style="fill:#667187; stroke:none;" d="M122 114L122 115L134 115L122 114M247 114L247 118L248 118L247 114M57 115L58 116L57 115M59 115L60 116L59 115M79 115L81 118L79 115M134 115L135 116L134 115M136 115L136 116L157 116L136 115z"/>
<path style="fill:#272e33; stroke:none;" d="M59 116L60 117L59 116z"/>
<path style="fill:#899091; stroke:none;" d="M60 116L61 117L60 116M93 116L94 117L93 116z"/>
<path style="fill:#667187; stroke:none;" d="M99 116L99 117L113 117L99 116z"/>
<path style="fill:#899091; stroke:none;" d="M113 116L113 117L123 117L113 116z"/>
<path style="fill:#667187; stroke:none;" d="M58 117L58 118L61 118L58 117z"/>
<path style="fill:#899091; stroke:none;" d="M79 117L80 118L79 117M81 117L81 118L85 118L81 117M236.667 117.333L237.333 117.667L236.667 117.333z"/>
<path style="fill:#667187; stroke:none;" d="M238 117L238 118L243 118L238 117z"/>
<path style="fill:#899091; stroke:none;" d="M59 118L59 122L60 122L59 118z"/>
<path style="fill:#272e33; stroke:none;" d="M60 118L61 119L60 118z"/>
<path style="fill:#899091; stroke:none;" d="M61 118L62 119L61 118z"/>
<path style="fill:#667187; stroke:none;" d="M60.6667 119.333L61.3333 119.667L60.6667 119.333z"/>
<path style="fill:#ced2d4; stroke:none;" d="M59 120L60 121L59 120z"/>
<path style="fill:#272e33; stroke:none;" d="M61 120L64 122L64 121L61 120z"/>
<path style="fill:#899091; stroke:none;" d="M62.6667 120.333L63.3333 120.667L62.6667 120.333z"/>
<path style="fill:#ced2d4; stroke:none;" d="M60 121L60 127L64 125L60 121z"/>
<path style="fill:#899091; stroke:none;" d="M64 121L61 122L61 123L65 122L64 121z"/>
<path style="fill:#667187; stroke:none;" d="M59 122L60 123L59 122M64 122L64 126L65 126L64 122z"/>
<path style="fill:#899091; stroke:none;" d="M261 122L261 126L262 126L261 122M59 123L61 128L59 123M65 123L66 124L65 123z"/>
<path style="fill:#667187; stroke:none;" d="M19 124L20 125L19 124z"/>
<path style="fill:#899091; stroke:none;" d="M62 124L62 126L64 126L62 124M64 124L65 125L64 124M66 124L68 126L66 124M79.3333 124.667L79.6667 125.333L79.3333 124.667z"/>
<path style="fill:#272e33; stroke:none;" d="M80 124L81 133L86 133L86 124L80 124M235 124C235 136.873 227.634 156.989 245 157L247 125L235 124z"/>
<path style="fill:#667187; stroke:none;" d="M241 124L241 125L246 125L241 124z"/>
<path style="fill:#899091; stroke:none;" d="M246 124L247 125L246 124z"/>
<path style="fill:#272e33; stroke:none;" d="M61 127L62 132L65 131L63 135C65.7328 134.712 74.6762 130.809 68 130L71 126L61 127z"/>
<path style="fill:#667187; stroke:none;" d="M68 125L68 126L71 126L68 125z"/>
<path style="fill:#899091; stroke:none;" d="M71.3333 125.667L71.6667 126.333L71.3333 125.667z"/>
<path style="fill:#667187; stroke:none;" d="M62 126L63 127L62 126M80 126L81 127L80 126M82 126L83 127L82 126M238 126L239 127L238 126M261 126L261 130L262 130L261 126M70 127C69.6087 130.05 69.6895 132.348 73 133L73 132L70 127z"/>
<path style="fill:#899091; stroke:none;" d="M168 127L167 135L173 132L171 133L171 132L174 131L175 135L176 135L176 131L177 131L177 135L178 135L179 128L180 128L180 135L190 135L190 130C192.396 130.575 192.487 130.475 193 128L184 128L184 134L183 134L183 128L172 129L172 127L168 127z"/>
<path style="fill:#667187; stroke:none;" d="M59.3333 128.667L59.6667 129.333L59.3333 128.667z"/>
<path style="fill:#ced2d4; stroke:none;" d="M60 128L60 131L62 128L60 128z"/>
<path style="fill:#667187; stroke:none;" d="M62.3333 128.667L62.6667 129.333L62.3333 128.667z"/>
<path style="fill:#899091; stroke:none;" d="M70 128L71 129L70 128z"/>
<path style="fill:#667187; stroke:none;" d="M172 128L173 129L172 128M179 128L180 129L179 128M246 128L246 134L247 134L246 128M65 129L66 130L65 129z"/>
<path style="fill:#899091; stroke:none;" d="M68.6667 129.333L69.3333 129.667L68.6667 129.333M71 129L72 130L71 129M86 129L86 133L87 133L86 129z"/>
<path style="fill:#ced2d4; stroke:none;" d="M168 129L168 133L169 133L168 129M171 129L172 130L171 129M179 129L179 134L180 134L179 129z"/>
<path style="fill:#667187; stroke:none;" d="M185 129L186 130L185 129z"/>
<path style="fill:#ced2d4; stroke:none;" d="M186 129L187 130L186 129z"/>
<path style="fill:#899091; stroke:none;" d="M61 130L60 132L61 130z"/>
<path style="fill:#ced2d4; stroke:none;" d="M187 130L188 131L187 130z"/>
<path style="fill:#667187; stroke:none;" d="M61 131L60 133L61 131z"/>
<path style="fill:#899091; stroke:none;" d="M60 138L61 138L65 132C61.1269 131.667 60.2692 134.59 60 138M71 131L72 132L71 131z"/>
<path style="fill:#667187; stroke:none;" d="M171.667 131.333L172.333 131.667L171.667 131.333z"/>
<path style="fill:#ced2d4; stroke:none;" d="M185 131L186 134L187 134L185 131z"/>
<path style="fill:#667187; stroke:none;" d="M186 131L187 132L186 131M191.333 131.667L191.667 132.333L191.333 131.667z"/>
<path style="fill:#ced2d4; stroke:none;" d="M61 132L62 133L61 132z"/>
<path style="fill:#899091; stroke:none;" d="M73 132L67 139C70.0928 137.601 73.8193 135.769 73 132z"/>
<path style="fill:#667187; stroke:none;" d="M80 132L77 136L74 133L63 140L63 141L68 141L65 149L65 154L65 155C68.1401 154.641 71.5663 155.639 72 159L67 156C68.3907 159.506 70.0989 163.329 73 159L76 165L77 162L78 162L80 163C82.4655 166.78 85.1776 166.083 88 163L84 164L83 134L87 134L87 133L80 132z"/>
<path style="fill:#ced2d4; stroke:none;" d="M171 132L172 133L171 132z"/>
<path style="fill:#899091; stroke:none;" d="M234 132L234 137L235 137L234 132z"/>
<path style="fill:#667187; stroke:none;" d="M62 133L63 139L64 139L66 134L65 134L62 133z"/>
<path style="fill:#899091; stroke:none;" d="M69 133L68 135L69 133z"/>
<path style="fill:#ced2d4; stroke:none;" d="M66 139L73 133C69.2146 133.825 65.9279 134.77 66 139z"/>
<path style="fill:#899091; stroke:none;" d="M75.6667 133.333L76.3333 133.667L75.6667 133.333M79.6667 133.333L80.3333 133.667L79.6667 133.333z"/>
<path style="fill:#667187; stroke:none;" d="M185 133L186 134L185 133z"/>
<path style="fill:#899091; stroke:none;" d="M191.333 133.667L191.667 134.333L191.333 133.667M64.3333 134.667L64.6667 135.333L64.3333 134.667z"/>
<path style="fill:#272e33; stroke:none;" d="M75 134L76 135L75 134z"/>
<path style="fill:#899091; stroke:none;" d="M77 134L77 136L79 134L77 134z"/>
<path style="fill:#272e33; stroke:none;" d="M83 134L84 164C97.7898 159.928 98.6462 136.621 83 134z"/>
<path style="fill:#899091; stroke:none;" d="M87 134L88 137L89 137L87 134z"/>
<path style="fill:#667187; stroke:none;" d="M168 134L169 135L168 134M171.667 134.333L172.333 134.667L171.667 134.333M174 134L175 135L174 134M179 134L180 135L179 134z"/>
<path style="fill:#899091; stroke:none;" d="M246 134L246 137L247 137L246 134z"/>
<path style="fill:#ced2d4; stroke:none;" d="M63 135L64 136L63 135z"/>
<path style="fill:#272e33; stroke:none;" d="M80.3333 135.667L80.6667 136.333L80.3333 135.667z"/>
<path style="fill:#667187; stroke:none;" d="M87 135L88 136L87 135z"/>
<path style="fill:#ced2d4; stroke:none;" d="M61 136L65 186L84 185L81.821 167.438L66 159L67 157L64 156L61 136z"/>
<path style="fill:#272e33; stroke:none;" d="M62 136L64 138L62 136z"/>
<path style="fill:#899091; stroke:none;" d="M260 136L260 140L261 140L260 136M62 137L63 138L62 137M89 137L90 138L89 137z"/>
<path style="fill:#667187; stroke:none;" d="M167.667 137.333L168.333 137.667L167.667 137.333z"/>
<path style="fill:#899091; stroke:none;" d="M170 137L169 140L170 137z"/>
<path style="fill:#667187; stroke:none;" d="M171 137L173 139L171 137z"/>
<path style="fill:#899091; stroke:none;" d="M172 137L172 144L176 141L175 144C178.716 143.204 178 140.363 178 137L175 140L172 137z"/>
<path style="fill:#667187; stroke:none;" d="M174 137L174 140L175 140L174 137M178 137L179 138L178 137z"/>
<path style="fill:#899091; stroke:none;" d="M179 137L179 144L184 144L185 141L186 144L192 144L189 137L191 141L188 137L185 140L184 137L179 137z"/>
<path style="fill:#667187; stroke:none;" d="M181 137L182 138L181 137M184 137L184 140L185 140L184 137M188 137L190 139L188 137M191 137L192 138L191 137z"/>
<path style="fill:#899091; stroke:none;" d="M193 137L196 144L196 143L196 137L193 137z"/>
<path style="fill:#667187; stroke:none;" d="M234 137L234 140L235 140L234 137M60 138L60 142L61 142L60 138z"/>
<path style="fill:#272e33; stroke:none;" d="M63 140L66 140L65 138L63 140z"/>
<path style="fill:#899091; stroke:none;" d="M65 138L66 139L65 138z"/>
<path style="fill:#272e33; stroke:none;" d="M72 138C71.4254 140.396 71.5249 140.487 74 141L72 138z"/>
<path style="fill:#667187; stroke:none;" d="M90 138L93 141L90 138z"/>
<path style="fill:#899091; stroke:none;" d="M91 138L92 139L91 138M167 138L167 144L168 144L167 138z"/>
<path style="fill:#ced2d4; stroke:none;" d="M168 138L168 143L169 143L168 138M171 138L171 143L172 143L171 138M178 138L178 143L179 143L178 138M182.333 138.667L182.667 139.333L182.333 138.667M188 138L190 141L188 138z"/>
<path style="fill:#667187; stroke:none;" d="M195 138L195 143L196 143L195 138z"/>
<path style="fill:#899091; stroke:none;" d="M62 139L62 146L63 146L64 142L65 142L63 147L63 148L67 154L65 149L68 141L62 139M92 139L93 140L92 139z"/>
<path style="fill:#667187; stroke:none;" d="M170 139L170 142L171 142L170 139z"/>
<path style="fill:#ced2d4; stroke:none;" d="M194 139L194 143L195 143L194 139z"/>
<path style="fill:#272e33; stroke:none;" d="M76 140L77 141L76 140z"/>
<path style="fill:#667187; stroke:none;" d="M181 140L182 141L181 140z"/>
<path style="fill:#ced2d4; stroke:none;" d="M186 140L189 143L186 140z"/>
<path style="fill:#667187; stroke:none;" d="M190 140L191 141L190 140M260 140L260 143L261 143L260 140z"/>
<path style="fill:#272e33; stroke:none;" d="M11 141L13 143L13 141L11 141z"/>
<path style="fill:#899091; stroke:none;" d="M74 141L75 142L74 141M77 141L78 142L77 141z"/>
<path style="fill:#667187; stroke:none;" d="M93 141L94 145L95 145L93 141M175.333 141.667L175.667 142.333L175.333 141.667z"/>
<path style="fill:#ced2d4; stroke:none;" d="M182.333 141.667L182.667 142.333L182.333 141.667z"/>
<path style="fill:#667187; stroke:none;" d="M185 141L185 144L186 144L185 141z"/>
<path style="fill:#ced2d4; stroke:none;" d="M64 142L64 147L65 147L64 142z"/>
<path style="fill:#272e33; stroke:none;" d="M75 142L76 143L75 142z"/>
<path style="fill:#899091; stroke:none;" d="M94 142L95 143L94 142M169 142L171 144L171 142L169 142z"/>
<path style="fill:#272e33; stroke:none;" d="M74 143L72 146L74 143M79 143L80 144L79 143z"/>
<path style="fill:#899091; stroke:none;" d="M119.667 143.333L120.333 143.667L119.667 143.333z"/>
<path style="fill:#9c6b5a; stroke:none;" d="M117 144L117 152L126 151C125.916 143.875 123.662 143.181 117 144M127 143L127 151L135 151L135 143L127 143z"/>
<path style="fill:#899091; stroke:none;" d="M147 145L155 144L147 145z"/>
<path style="fill:#667187; stroke:none;" d="M168 143L169 144L168 143M171 143L172 144L171 143M178 143L179 144L178 143M181 143L182 144L181 143M190 143L191 144L190 143M193 143L194 144L193 143M97 144L97 145L105 145L105 150L106 150L106 144L97 144M149 144L149 145L156 147L149 144z"/>
<path style="fill:#899091; stroke:none;" d="M162.667 144.333L163.333 144.667L162.667 144.333z"/>
<path style="fill:#667187; stroke:none;" d="M245.333 144.667L245.667 145.333L245.333 144.667M63.3333 145.667L63.6667 146.333L63.3333 145.667z"/>
<path style="fill:#899091; stroke:none;" d="M95 145L96 148L97 148L95 145z"/>
<path style="fill:#272e33; stroke:none;" d="M97 145L98 151L101 150L106 151L105 145L97 145z"/>
<path style="fill:#899091; stroke:none;" d="M146 145L147 146L146 145z"/>
<path style="fill:#667187; stroke:none;" d="M157 145L158 148L160 149L161 149L157 145z"/>
<path style="fill:#272e33; stroke:none;" d="M158 145L158 146L164 146L158 145z"/>
<path style="fill:#667187; stroke:none;" d="M164 145L162 146L162 147L164 145z"/>
<path style="fill:#899091; stroke:none;" d="M165 145L161 147L161 148L161 149L167 149L165 145z"/>
<path style="fill:#272e33; stroke:none;" d="M72 150L70 149L69 152L75 159L78 159L80 153L83 154L82 146L75 151L76 146L72 150z"/>
<path style="fill:#667187; stroke:none;" d="M95 146L96 147L95 146M97 146C97.1971 148.554 98.0865 153.077 101 150L98 151L97 146z"/>
<path style="fill:#899091; stroke:none;" d="M140 148L140 149L146 147L140 148z"/>
<path style="fill:#ced2d4; stroke:none;" d="M164 146L165 147L164 146z"/>
<path style="fill:#272e33; stroke:none;" d="M166 146L167 147L166 146z"/>
<path style="fill:#899091; stroke:none;" d="M167 146L168 147L167 146M245 146L245 150L246 150L245 146M61 147L61 151L62 151L61 147z"/>
<path style="fill:#667187; stroke:none;" d="M143 147L144 148L143 147z"/>
<path style="fill:#ced2d4; stroke:none;" d="M162 147L163 148L162 147z"/>
<path style="fill:#667187; stroke:none;" d="M166 147L167 148L166 147M168 147L168 148L169 151L170 151L168 147z"/>
<path style="fill:#899091; stroke:none;" d="M170 147L171 148L170 147M259 147L259 151L260 151L259 147M95 148L96 149L95 148z"/>
<path style="fill:#667187; stroke:none;" d="M141.667 148.333L142.333 148.667L141.667 148.333M163 148L165 150L165 148L163 148z"/>
<path style="fill:#899091; stroke:none;" d="M170 151L174 149L170 151M233 148L233 152L234 152L233 148z"/>
<path style="fill:#667187; stroke:none;" d="M9 149L8 152L9 149M78 149L79 153L82 149L78 149M94 149L95 150L94 149M140 149L141 150L140 149z"/>
<path style="fill:#899091; stroke:none;" d="M94.3333 150.667L94.6667 151.333L94.3333 150.667M135 150L132 153L132 154L139 150L135 150z"/>
<path style="fill:#667187; stroke:none;" d="M139 150L140 151L139 150M2 151L1 155L2 155L2 151M61 151L61 155L62 155L61 151z"/>
<path style="fill:#899091; stroke:none;" d="M97 151L98 152L97 151z"/>
<path style="fill:#667187; stroke:none;" d="M104.667 151.333L105.333 151.667L104.667 151.333z"/>
<path style="fill:#899091; stroke:none;" d="M123.667 151.333L124.333 151.667L123.667 151.333z"/>
<path style="fill:#667187; stroke:none;" d="M173 151L174 152L173 151z"/>
<path style="fill:#899091; stroke:none;" d="M174 151L175 152L174 151z"/>
<path style="fill:#667187; stroke:none;" d="M259 151L259 155L260 155L259 151M76 152L75 156L76 156L76 152M94 152L95 153L94 152z"/>
<path style="fill:#899091; stroke:none;" d="M98 152L99 153L98 152z"/>
<path style="fill:#667187; stroke:none;" d="M137 152L138 153L137 152z"/>
<path style="fill:#899091; stroke:none;" d="M177 152L178 153L177 152z"/>
<path style="fill:#667187; stroke:none;" d="M233 152L236 157L236 156L233 152M7 153L5 157L6 157L7 153z"/>
<path style="fill:#899091; stroke:none;" d="M94 153L95 154L94 153z"/>
<path style="fill:#667187; stroke:none;" d="M134 153L135 154L134 153M136 153L137 154L136 153M178 153L179 154L178 153z"/>
<path style="fill:#899091; stroke:none;" d="M179 153L180 154L179 153M64 154L72 159L70 157L64 154z"/>
<path style="fill:#667187; stroke:none;" d="M93 154L94 155L93 154M131 154L132 155L131 154M135 154L136 155L135 154M180 154L182 156L180 154z"/>
<path style="fill:#899091; stroke:none;" d="M181 154L182 155L181 154M93 155L94 156L93 155M130 155L131 156L130 155z"/>
<path style="fill:#667187; stroke:none;" d="M132 155L133 156L132 155z"/>
<path style="fill:#899091; stroke:none;" d="M182 155L182 156L190 160L182 155z"/>
<path style="fill:#667187; stroke:none;" d="M12 156L11 164L8 165L8 166L11 166L12 156z"/>
<path style="fill:#899091; stroke:none;" d="M80 156L81 157L80 156z"/>
<path style="fill:#667187; stroke:none;" d="M130 156L131 157L130 156M183 156L184 157L183 156z"/>
<path style="fill:#899091; stroke:none;" d="M233 156L234 157L233 156M67 157L66 159L68 159L67 157M129 157L130 158L129 157z"/>
<path style="fill:#667187; stroke:none;" d="M185 157L186 158L185 157z"/>
<path style="fill:#899091; stroke:none;" d="M243 157L244 158L243 157z"/>
<path style="fill:#667187; stroke:none;" d="M129 158L130 159L129 158M186 158L189 161L186 158z"/>
<path style="fill:#899091; stroke:none;" d="M68.3333 159.667L68.6667 160.333L68.3333 159.667M72 159C71.671 163.322 72.6994 165.079 77 166L76 162L72 159z"/>
<path style="fill:#272e33; stroke:none;" d="M78.3333 159.667L78.6667 160.333L78.3333 159.667M80.3333 159.667L80.6667 160.333L80.3333 159.667z"/>
<path style="fill:#899091; stroke:none;" d="M82 159L82 161L84 161L84 159L82 159M92 159L93 160L92 159M127 159L128 160L127 159M258 159L258 163L259 163L258 159M62 160L62 164L63 164L62 160z"/>
<path style="fill:#667187; stroke:none;" d="M91 160L92 161L91 160z"/>
<path style="fill:#899091; stroke:none;" d="M125 160L126 161L125 160z"/>
<path style="fill:#667187; stroke:none;" d="M126 160L127 161L126 160M139 160L136 162L136 163L140 161L139 160M190 160L191 161L190 160z"/>
<path style="fill:#899091; stroke:none;" d="M69 161L70 162L69 161M91 161L92 162L91 161M123 161L124 162L123 161z"/>
<path style="fill:#667187; stroke:none;" d="M124.333 161.667L124.667 162.333L124.333 161.667M191 161L190 163L191 161z"/>
<path style="fill:#272e33; stroke:none;" d="M77.3333 162.667L77.6667 163.333L77.3333 162.667M81 162L82 163L81 162z"/>
<path style="fill:#667187; stroke:none;" d="M89 162L90 163L89 162z"/>
<path style="fill:#899091; stroke:none;" d="M90 162L91 163L90 162M191 162L191 164L193 162L191 162M10 163L11 164L10 163M79 163L77 164L77 165L79 163M88 163L88 168L89 168L88 163z"/>
<path style="fill:#667187; stroke:none;" d="M258 163L258 167L259 167L258 163M0 164L0 167L1 167L0 164M62.3333 164.667L62.6667 165.333L62.3333 164.667z"/>
<path style="fill:#272e33; stroke:none;" d="M82 164L83 165L82 164z"/>
<path style="fill:#667187; stroke:none;" d="M121 164L122 165L121 164z"/>
<path style="fill:#899091; stroke:none;" d="M192 164L193 165L192 164M9 165L8 169L9 169L9 165M80.6667 165.333L81.3333 165.667L80.6667 165.333z"/>
<path style="fill:#667187; stroke:none;" d="M120 165L121 166L120 165M132 165L133 166L132 165z"/>
<path style="fill:#899091; stroke:none;" d="M82.3333 166.667L82.6667 167.333L82.3333 166.667M119 166L120 167L119 166z"/>
<path style="fill:#667187; stroke:none;" d="M193 166L194 167L193 166M7 167L6 174L7 174L7 167M9 167L10 168L9 167z"/>
<path style="fill:#899091; stroke:none;" d="M113 167L113 168L119 168L113 167z"/>
<path style="fill:#667187; stroke:none;" d="M194 167L195 168L194 167M88 168L88 173L89 173L88 168M113.333 168.667L113.667 169.333L113.333 168.667z"/>
<path style="fill:#272e33; stroke:none;" d="M114 168L114 170L118 170L118 168L114 168z"/>
<path style="fill:#667187; stroke:none;" d="M118 168L119 171L120 171L118 168M139 168L138 170L139 168z"/>
<path style="fill:#899091; stroke:none;" d="M195 168L196 169L195 168z"/>
<path style="fill:#667187; stroke:none;" d="M83 169L83 176L84 176L83 169z"/>
<path style="fill:#899091; stroke:none;" d="M118 169L118 172L119 172L118 169M63 170L63 174L64 174L63 170M113 171L113 172L117 172L113 171z"/>
<path style="fill:#ced2d4; stroke:none;" d="M116.667 170.333L117.333 170.667L116.667 170.333z"/>
<path style="fill:#667187; stroke:none;" d="M196 170L197 171L196 170M117 171L118 172L117 171z"/>
<path style="fill:#899091; stroke:none;" d="M197 171L198 172L197 171z"/>
<path style="fill:#667187; stroke:none;" d="M113.333 172.667L113.667 173.333L113.333 172.667M125 172L126 173L125 172M116 176L120 174L116 176M198 173L199 174L198 173z"/>
<path style="fill:#899091; stroke:none;" d="M257 173L257 176L258 176L257 173z"/>
<path style="fill:#667187; stroke:none;" d="M63.3333 174.667L63.6667 175.333L63.3333 174.667z"/>
<path style="fill:#899091; stroke:none;" d="M116 174L117 175L116 174M118 174L119 175L118 174z"/>
<path style="fill:#667187; stroke:none;" d="M87 175L87 180L88 180L87 175z"/>
<path style="fill:#899091; stroke:none;" d="M113.333 175.667L113.667 176.333L113.333 175.667z"/>
<path style="fill:#667187; stroke:none;" d="M114 175L115 176L114 175z"/>
<path style="fill:#899091; stroke:none;" d="M115 175L116 176L115 175M199 175L200 176L199 175M83 176L83 182L84 182L83 176z"/>
<path style="fill:#667187; stroke:none;" d="M257 176L257 179L258 179L257 176z"/>
<path style="fill:#899091; stroke:none;" d="M89 177L89 182L90 182L89 177z"/>
<path style="fill:#667187; stroke:none;" d="M114 177L114 178L117 178L114 177z"/>
<path style="fill:#899091; stroke:none;" d="M200 177L201 178L200 177M115.667 178.333L116.333 178.667L115.667 178.333z"/>
<path style="fill:#667187; stroke:none;" d="M130 178L129 181L135 185L139 182L130 178z"/>
<path style="fill:#899091; stroke:none;" d="M113.333 179.667L113.667 180.333L113.333 179.667M201 179L202 180L201 179M64 180L64 183L65 183L64 180z"/>
<path style="fill:#667187; stroke:none;" d="M201 180L202 181L201 180M234.667 180.333L235.333 180.667L234.667 180.333z"/>
<path style="fill:#899091; stroke:none;" d="M236 180L236 181L242 181L236 180z"/>
<path style="fill:#667187; stroke:none;" d="M114 181L115 182L114 181z"/>
<path style="fill:#272e33; stroke:none;" d="M234 181L234 183L237 183L237 181L234 181z"/>
<path style="fill:#667187; stroke:none;" d="M237 181L236 183L236 184L239 182L247 183L247 181L237 181z"/>
<path style="fill:#272e33; stroke:none;" d="M247 181L239 182L249 184L247 181z"/>
<path style="fill:#667187; stroke:none;" d="M248 181L252 184L252 183L248 181z"/>
<path style="fill:#899091; stroke:none;" d="M249 181L249 182L252 182L249 181z"/>
<path style="fill:#667187; stroke:none;" d="M89 182L89 185L90 185L89 182z"/>
<path style="fill:#899091; stroke:none;" d="M114 182L115 183L114 182M202 182L203 183L202 182M237 182L238 183L237 182z"/>
<path style="fill:#272e33; stroke:none;" d="M250.667 182.333L251.333 182.667L250.667 182.333z"/>
<path style="fill:#899091; stroke:none;" d="M256 182L256 185L257 185L256 182z"/>
<path style="fill:#667187; stroke:none;" d="M64 183L64 186L65 186L64 183z"/>
<path style="fill:#899091; stroke:none;" d="M111 183L111 184L114 184L111 183z"/>
<path style="fill:#667187; stroke:none;" d="M127 183L126 185L127 183z"/>
<path style="fill:#899091; stroke:none;" d="M136 183L137 184L136 183z"/>
<path style="fill:#667187; stroke:none;" d="M203 183L203 184L209 184L203 183z"/>
<path style="fill:#899091; stroke:none;" d="M209 183L209 184L216 184L209 183M228 184L228 185L236 183L228 184M253.333 183.667L253.667 184.333L253.333 183.667z"/>
<path style="fill:#667187; stroke:none;" d="M254.333 183.667L254.667 184.333L254.333 183.667z"/>
<path style="fill:#899091; stroke:none;" d="M90 184L91 185L90 184M92 184L92 185L101 185L92 184z"/>
<path style="fill:#667187; stroke:none;" d="M101 184L101 185L107 185L101 184M221 184L221 185L228 185L221 184z"/>
<path style="fill:#ced2d4; stroke:none;" d="M236 184L236 185L243 185L236 184z"/>
<path style="fill:#899091; stroke:none;" d="M243 184L243 186L252 185L243 184M77 185L77 186L83 186L77 185z"/>
<path style="fill:#667187; stroke:none;" d="M83 185L84 186L83 185M129 185L129 188L130 188L129 185M241.667 185.333L242.333 185.667L241.667 185.333M256 185L257 186L256 185z"/>
<path style="fill:#899091; stroke:none;" d="M65.6667 186.333L66.3333 186.667L65.6667 186.333z"/>
<path style="fill:#667187; stroke:none;" d="M67 186L67 187L72 187L67 186M131 186L132 187L131 186M255 186L256 187L255 186M64 191L80.0039 203.272L105.436 205.911L110 222L111 222L116 210L110 214C108.993 208.935 108.639 206.324 113 203L117 212L119 212L120 205L119 205L118 210L117 210C115.06 204.954 113.904 201.772 117 197L113 202L108 201L108 202L110 203L107 205L111 195C106.962 194.001 106.35 191.964 107 188C93.1323 188 77.3779 186.935 64 191M13 190L15 204L16 204L13 190z"/>
<path style="fill:#899091; stroke:none;" d="M13 191L14 192L13 191z"/>
<path style="fill:#667187; stroke:none;" d="M257.333 191.667L257.667 192.333L257.333 191.667z"/>
<path style="fill:#899091; stroke:none;" d="M258 191L255 216L244 218L244 219L257 218L258 194L264 194L258 191z"/>
<path style="fill:#667187; stroke:none;" d="M259 191L260 192L259 191z"/>
<path style="fill:#9c6b5a; stroke:none;" d="M13 192L13 195L14 195L13 192z"/>
<path style="fill:#667187; stroke:none;" d="M112 192L115 195L112 192M263 192L258 194L256 217L265 218C263.373 211.147 268.532 196.834 263 192M12 195L13 196L12 195z"/>
<path style="fill:#899091; stroke:none;" d="M13 195L0 200L0 221L7 220L7 221C0.248585 222.49 0.00493314 225.616 0 232C3.89753 229.23 6.29347 224.798 10.2083 222.225C14.3605 219.497 19.6356 219.789 23.9414 217.442C26.4568 216.071 28.1746 214.17 26 212L30 206L30 205C18.1168 205 17.4888 205.402 13 195z"/>
<path style="fill:#667187; stroke:none;" d="M128 195L125 200L128 195M238 195L238 198C240.006 196.873 240.006 196.127 238 195M9.66667 196.333L10.3333 196.667L9.66667 196.333z"/>
<path style="fill:#899091; stroke:none;" d="M238 196L239 197L238 196z"/>
<path style="fill:#667187; stroke:none;" d="M7 197L8 198L7 197M4.66667 198.333L5.33333 198.667L4.66667 198.333z"/>
<path style="fill:#899091; stroke:none;" d="M115 198L114 204L115 204L118 201L117 198L115 198z"/>
<path style="fill:#667187; stroke:none;" d="M211 198L211 199L219 199L211 198M234 198L234 202L235 202L234 198z"/>
<path style="fill:#272e33; stroke:none;" d="M262 198L261 204L262 204L262 198z"/>
<path style="fill:#667187; stroke:none;" d="M1.66667 199.333L2.33333 199.667L1.66667 199.333M117 199L118 200L117 199M208 199L209 200L208 199z"/>
<path style="fill:#ced2d4; stroke:none;" d="M184 226L182 250L212 251L223.397 253.514L225 265L250 275C243.692 266.035 237.009 259.757 249 252C251.682 240.429 263.573 247.163 270.054 247.333C277.074 247.516 284.586 244.474 291 242C287.873 236.191 275.236 234.455 269 234L268 227C277.543 227 271.772 217.912 272 217L241 220L242 209L231 206C230.594 211.259 228.05 213.082 223 214L223 207L219 207C221.914 200.937 215.037 195.598 209.617 200.028C206.796 202.334 208.233 210.535 207.211 213.999C204.426 223.441 192.913 227.629 184 226z"/>
<path style="fill:#899091; stroke:none;" d="M219 199L220 200L219 199z"/>
<path style="fill:#667187; stroke:none;" d="M220.333 199.667L220.667 200.333L220.333 199.667M237 199L238 200L237 199M243 199L244 200L243 199M256 199L256 204L257 204L256 199z"/>
<path style="fill:#ced2d4; stroke:none;" d="M116 200L118 207L116 200z"/>
<path style="fill:#899091; stroke:none;" d="M220 201L221 202L220 201z"/>
<path style="fill:#667187; stroke:none;" d="M231 201L233 206L236 204L231 201M118 202L119 203L118 202M131 202L132 203L131 202M221 202L222 203L221 202M238 202L239 203L238 202M244 202L245 203L244 202z"/>
<path style="fill:#899091; stroke:none;" d="M110 214C114.917 210.924 114.874 208.189 113 203C108.112 205.589 108.683 209.157 110 214M118 203L117 210L118 210L118 203M221 203L219 207L223 207L223 206L221 203z"/>
<path style="fill:#667187; stroke:none;" d="M318.667 203.333L319.333 203.667L318.667 203.333z"/>
<path style="fill:#9c6b5a; stroke:none;" d="M15 204L15 205L20 205L15 204z"/>
<path style="fill:#667187; stroke:none;" d="M20 204L20 205L43 205L20 204z"/>
<path style="fill:#272e33; stroke:none;" d="M103.667 204.333L104.333 204.667L103.667 204.333z"/>
<path style="fill:#899091; stroke:none;" d="M208 204L208 207L209 207L208 204z"/>
<path style="fill:#667187; stroke:none;" d="M231 204L230 210L231 210L231 204M245 204L244 206L245 204M247 204L248 205L247 204M266 216L266 217C274.048 213.877 285.252 210.605 291 204C280.608 204.087 274.229 210.402 266 216z"/>
<path style="fill:#9c6b5a; stroke:none;" d="M14 205L18 213L19 213L14 205z"/>
<path style="fill:#ced2d4; stroke:none;" d="M17 205L18 206L17 205M26 212C27.2747 215.428 24.1688 217.093 21.0386 218.25C12.5808 221.375 4.2034 223.191 0.603395 233C-1.57455 238.934 0 247.731 0 254L0 300L65 300C65.1621 280.672 79.1599 273.578 90.7909 261.292C94.8043 257.052 95.9163 251.075 100 247C103.314 257.456 111.2 242.821 114 239L109 239L109 238C117.531 236.179 113.535 230.382 111 225L104 229C106.547 222.449 111.765 214.454 105.86 207.603C103.232 204.554 95.6051 206 92 206C79.3005 206 66.7236 205 54 205C44.6119 205 29.8134 201.351 26 212z"/>
<path style="fill:#899091; stroke:none;" d="M76 205L76 206C84.0429 206 99.4786 203.059 106 208C107.354 204.407 102.55 205.006 100 205L76 205M115.333 205.667L115.667 206.333L115.333 205.667z"/>
<path style="fill:#667187; stroke:none;" d="M221 205L222 206L221 205M240 205L241 206L240 205z"/>
<path style="fill:#899091; stroke:none;" d="M245 205L242 208C241.499 211.963 239.669 217.089 243 220C242.105 211.338 247.325 211.044 251 205L245 205z"/>
<path style="fill:#272e33; stroke:none;" d="M261 205L261 207L263 205L261 205z"/>
<path style="fill:#899091; stroke:none;" d="M289 206L265 217L265 218L272 217L274 219L268 227L269 234C274.331 233.81 288.046 237.033 291 242L266 247C270.367 253.609 281.373 253.306 286.422 260.375C289.321 264.434 284.718 270.272 286.458 274.985C288.556 280.67 294.003 280.53 297.643 284.418C299.819 286.743 298.699 290.033 300.642 292.362C304.48 296.963 314.415 298.179 320 299L319.698 253L310.95 238L289 206z"/>
<path style="fill:#667187; stroke:none;" d="M14 207L7 219L7 220C14.6035 218.644 20.7026 213.885 14 207M223 207L224 208L223 207M233 207L234 208L233 207M237 208L237 209L242 209L237 208M244 207L245 208L244 207M250 207L251 208L250 207M290 207L291 208L290 207z"/>
<path style="fill:#899091; stroke:none;" d="M223.333 208.667L223.667 209.333L223.333 208.667M235.667 208.333L236.333 208.667L235.667 208.333z"/>
<path style="fill:#667187; stroke:none;" d="M247 208L247 209L250 209L247 208z"/>
<path style="fill:#272e33; stroke:none;" d="M261 208L262 209L261 208z"/>
<path style="fill:#667187; stroke:none;" d="M291 208L292 209L291 208z"/>
<path style="fill:#899091; stroke:none;" d="M107 209L107 212L108 212L107 209z"/>
<path style="fill:#667187; stroke:none;" d="M244 211L247 210L244 211M207.333 210.667L207.667 211.333L207.333 210.667M223 210L223 214L227 213L227 212L223 210M255 210L255 214L256 214L255 210z"/>
<path style="fill:#272e33; stroke:none;" d="M261 210L262 211L261 210z"/>
<path style="fill:#667187; stroke:none;" d="M228 211L228 212L231 212L228 211M293 211L294 212L293 211z"/>
<path style="fill:#899091; stroke:none;" d="M207.333 212.667L207.667 213.333L207.333 212.667M227.667 212.333L228.333 212.667L227.667 212.333z"/>
<path style="fill:#667187; stroke:none;" d="M243 212L243 215L244 215L243 212z"/>
<path style="fill:#899091; stroke:none;" d="M259 212L260 213L259 212z"/>
<path style="fill:#667187; stroke:none;" d="M294 212L295 213L294 212z"/>
<path style="fill:#899091; stroke:none;" d="M225.667 213.333L226.333 213.667L225.667 213.333z"/>
<path style="fill:#667187; stroke:none;" d="M247 217L254 214L247 217z"/>
<path style="fill:#272e33; stroke:none;" d="M261 213L261 216L262 216L261 213z"/>
<path style="fill:#899091; stroke:none;" d="M108 214L108 217L109 217L108 214z"/>
<path style="fill:#667187; stroke:none;" d="M295 214L296 215L295 214z"/>
<path style="fill:#899091; stroke:none;" d="M206.333 215.667L206.667 216.333L206.333 215.667z"/>
<path style="fill:#667187; stroke:none;" d="M254 215L255 216L254 215M296 215L297 216L296 215M242 216L244 219L242 216M245.667 217.333L246.333 217.667L245.667 217.333M297 217L298 218L297 217z"/>
<path style="fill:#899091; stroke:none;" d="M109 218L111 225L109 218M205 218L206 219L205 218M261 218L262 219L261 218z"/>
<path style="fill:#667187; stroke:none;" d="M204 219L203 221L204 219M298 219L299 220L298 219M0 223L7 221L0 223z"/>
<path style="fill:#899091; stroke:none;" d="M204 220L205 221L204 220z"/>
<path style="fill:#667187; stroke:none;" d="M299 220L300 221L299 220M202 221L203 222L202 221M107 222L107 225L108 225L107 222z"/>
<path style="fill:#272e33; stroke:none;" d="M108 222L109 225L108 222z"/>
<path style="fill:#667187; stroke:none;" d="M199 222L200 223L199 222z"/>
<path style="fill:#899091; stroke:none;" d="M200 222L201 223L200 222z"/>
<path style="fill:#667187; stroke:none;" d="M301.333 222.667L301.667 223.333L301.333 222.667M197 223L198 224L197 223z"/>
<path style="fill:#899091; stroke:none;" d="M198 223L199 224L198 223M105 224L106 225L105 224z"/>
<path style="fill:#272e33; stroke:none;" d="M106 224L105 228L106 228L106 224z"/>
<path style="fill:#667187; stroke:none;" d="M111 224L111 227L112 227L111 224z"/>
<path style="fill:#899091; stroke:none;" d="M196 224L197 225L196 224z"/>
<path style="fill:#667187; stroke:none;" d="M105 225L106 226L105 225z"/>
<path style="fill:#899091; stroke:none;" d="M107 225L108 226L107 225z"/>
<path style="fill:#667187; stroke:none;" d="M184 225L185 226L184 225M193 225L194 226L193 225z"/>
<path style="fill:#899091; stroke:none;" d="M194 225L195 226L194 225z"/>
<path style="fill:#667187; stroke:none;" d="M302 225L303 226L302 225z"/>
<path style="fill:#899091; stroke:none;" d="M106 226L107 227L106 226z"/>
<path style="fill:#667187; stroke:none;" d="M183 226L184 227L183 226z"/>
<path style="fill:#899091; stroke:none;" d="M186.667 226.333L187.333 226.667L186.667 226.333z"/>
<path style="fill:#667187; stroke:none;" d="M188.667 226.333L189.333 226.667L188.667 226.333M191 226L192 227L191 226z"/>
<path style="fill:#899091; stroke:none;" d="M192 226L193 227L192 226z"/>
<path style="fill:#667187; stroke:none;" d="M303 226L304 227L303 226z"/>
<path style="fill:#899091; stroke:none;" d="M104 227L104 229L106 229L104 227M111 227L112 228L111 227M183 227L184 228L183 227M112.667 228.333L113.333 228.667L112.667 228.333z"/>
<path style="fill:#667187; stroke:none;" d="M182.333 228.667L182.667 229.333L182.333 228.667M304 228L305 229L304 228z"/>
<path style="fill:#899091; stroke:none;" d="M111 229L110 231L111 229M114 229L115 230L114 229z"/>
<path style="fill:#667187; stroke:none;" d="M305 229L306 230L305 229z"/>
<path style="fill:#899091; stroke:none;" d="M68 232L43 233L42 238L49 238C60.4531 229.189 69.1178 244.523 64.6867 254.892C62.6499 259.659 46.6646 264.324 42.7423 260.393C39.2495 256.892 41 247.549 41 243L40 243L34 265L73 261L73 267L74 267L77 236L84 238C82.8887 246.785 83.5318 259.266 76 265L76 266C85.7299 261.35 85.233 242.718 86 233L78 230L68 232z"/>
<path style="fill:#667187; stroke:none;" d="M76 230L77 231L76 230M117 230L117 231L120 231L117 230M127 230L126 232L127 230z"/>
<path style="fill:#9c6b5a; stroke:none;" d="M128 230L129 231L128 230z"/>
<path style="fill:#899091; stroke:none;" d="M129 230L137 240L138 246L146 249C145.83 254.072 148.13 258.861 143 262L143 263L150 263C150.021 257.47 153.785 251.542 148 248L149 244L142 240L145 245L129 230z"/>
<path style="fill:#9c6b5a; stroke:none;" d="M131 230L145 245L142 240L149 244L148 248C152.904 252.587 149.301 257.151 150 263L170 262C162.062 249.01 145.441 235.426 131 230z"/>
<path style="fill:#667187; stroke:none;" d="M133 230L134 231L133 230z"/>
<path style="fill:#899091; stroke:none;" d="M182 230L183 231L182 230z"/>
<path style="fill:#667187; stroke:none;" d="M67 231L68 232L67 231z"/>
<path style="fill:#ced2d4; stroke:none;" d="M120 248C129.699 249.801 134.113 249.918 131 261C144.053 264.966 146.287 260.886 146 249L138 246L137 240C134.7 238.122 131.759 232.398 128.87 231.921C123.636 231.057 120.726 244.495 120 248z"/>
<path style="fill:#667187; stroke:none;" d="M134 231L134 232L147 238C144.196 233.282 139.217 231.771 134 231M306 231L307 232L306 231M76 232L77 233L76 232z"/>
<path style="fill:#899091; stroke:none;" d="M105 232L107 236L105 232z"/>
<path style="fill:#667187; stroke:none;" d="M115.333 232.667L115.667 233.333L115.333 232.667M181 232L181 235L182 235L181 232M307 232L308 233L307 232M125 233L126 234L125 233M77 234L78 235L77 234z"/>
<path style="fill:#899091; stroke:none;" d="M125 234L126 235L125 234z"/>
<path style="fill:#667187; stroke:none;" d="M308 234L309 235L308 234M55 235L55 236L62 236L63 258C69.7668 251.178 64.7384 235.115 55 235z"/>
<path style="fill:#9c6b5a; stroke:none;" d="M80 235L81 236L80 235M83 235L84 236L83 235z"/>
<path style="fill:#667187; stroke:none;" d="M114 235L115 236L114 235M124 235L125 236L124 235z"/>
<path style="fill:#899091; stroke:none;" d="M181 235L181 241L182 241L181 235z"/>
<path style="fill:#667187; stroke:none;" d="M309 235L310 236L309 235M46 237L46 238L54 237L46 237z"/>
<path style="fill:#272e33; stroke:none;" d="M41 243L45 244L49 244L61 256L45 262L62.9722 256.487L62 236C55.6252 236.018 43.1337 235.975 41 243z"/>
<path style="fill:#667187; stroke:none;" d="M77 236L75 256L76 256L78 237L79 237L76 264L75 264L75 259L74 259L73 267L73 268C83.5143 262.9 83.1862 248.311 84 238L77 236z"/>
<path style="fill:#272e33; stroke:none;" d="M78 237L75 264L76 264L78 237z"/>
<path style="fill:#899091; stroke:none;" d="M109 238L109 239L114 239L104 253L109 254L116 239L109 238M123 237L124 238L123 237z"/>
<path style="fill:#667187; stroke:none;" d="M310 237L311 238L310 237M42 238L43 239L42 238z"/>
<path style="fill:#899091; stroke:none;" d="M103 238L104 239L103 238z"/>
<path style="fill:#9c6b5a; stroke:none;" d="M115 238L109 254L112 254C113.163 249.981 118.195 241.171 115 238z"/>
<path style="fill:#667187; stroke:none;" d="M117.333 238.667L117.667 239.333L117.333 238.667z"/>
<path style="fill:#899091; stroke:none;" d="M122 238L123 239L122 238z"/>
<path style="fill:#667187; stroke:none;" d="M147 238L152 242L147 238M311 238L312 239L311 238M41 239L42 240L41 239M43 240L44 241L43 240M47 240L48 241L47 240M121 240L122 241L121 240M312 240L313 241L312 240z"/>
<path style="fill:#899091; stroke:none;" d="M121 241L122 242L121 241z"/>
<path style="fill:#667187; stroke:none;" d="M42 242L42 262L61 256L49 244L45 244L45 242L42 242z"/>
<path style="fill:#899091; stroke:none;" d="M43 242L44 243L43 242z"/>
<path style="fill:#667187; stroke:none;" d="M152 242L153 243L152 242M313 242L314 243L313 242M120.333 243.667L120.667 244.333L120.333 243.667M153 243L154 244L153 243z"/>
<path style="fill:#899091; stroke:none;" d="M257 247L260 248L261 248L261 244L266 245C262.425 242.414 259.726 243.913 257 247z"/>
<path style="fill:#667187; stroke:none;" d="M314 243L315 244L314 243M154.333 244.667L154.667 245.333L154.333 244.667z"/>
<path style="fill:#9c6b5a; stroke:none;" d="M261 244L260 250L264 252L261 244z"/>
<path style="fill:#667187; stroke:none;" d="M262 244L263 245L262 244M264 244L265 245L264 244M315 244L316 245L315 244z"/>
<path style="fill:#899091; stroke:none;" d="M120 245L121 246L120 245M253 245L248 253L249 253L250 253L249 250L252 252L253 252L251 247L254 246L253 245z"/>
<path style="fill:#667187; stroke:none;" d="M265.333 245.667L265.667 246.333L265.333 245.667M155 246L156 247L155 246z"/>
<path style="fill:#899091; stroke:none;" d="M181 246C181.872 251.225 185.345 250.984 190 251L190 250L182 250L181 246z"/>
<path style="fill:#667187; stroke:none;" d="M253 246L256 249L253 246z"/>
<path style="fill:#899091; stroke:none;" d="M255 246L256 247L255 246z"/>
<path style="fill:#9c6b5a; stroke:none;" d="M256 247L256 248L260 246L256 247z"/>
<path style="fill:#667187; stroke:none;" d="M316 246L317 247L316 246z"/>
<path style="fill:#899091; stroke:none;" d="M98 247L100 249L100 247L98 247z"/>
<path style="fill:#667187; stroke:none;" d="M156 247L157 248L156 247z"/>
<path style="fill:#9c6b5a; stroke:none;" d="M251 247L253 258L251 258L250 263L245 257C240.88 259.983 242.117 264.357 246 267L246 265L254 272L263 267C261.711 258.243 260.33 249.588 251 247z"/>
<path style="fill:#667187; stroke:none;" d="M263 247L263 250L264 250L263 247z"/>
<path style="fill:#899091; stroke:none;" d="M120 248L120 249L123 249L120 248z"/>
<path style="fill:#667187; stroke:none;" d="M157 248L158 249L157 248z"/>
<path style="fill:#9c6b5a; stroke:none;" d="M250 248L251 249L250 248z"/>
<path style="fill:#667187; stroke:none;" d="M317 248L318 249L317 248z"/>
<path style="fill:#899091; stroke:none;" d="M97 249L98 250L97 249z"/>
<path style="fill:#667187; stroke:none;" d="M99 249L100 250L99 249M127.667 249.333L128.333 249.667L127.667 249.333M131 249L132 250L131 249M158 249L159 250L158 249M266.667 249.333L267.333 249.667L266.667 249.333M318 249L319 250L318 249M97 250L98 251L97 250M100 250L101 251L100 250z"/>
<path style="fill:#899091; stroke:none;" d="M132 250L132 256L133 256L132 250z"/>
<path style="fill:#667187; stroke:none;" d="M181 250L182 251L181 250M249 250L252 256L253 256L249 250z"/>
<path style="fill:#9c6b5a; stroke:none;" d="M251 250L252 251L251 250z"/>
<path style="fill:#667187; stroke:none;" d="M264.333 250.667L264.667 251.333L264.333 250.667M269 250L270 251L269 250M319 250L320 251L319 250z"/>
<path style="fill:#899091; stroke:none;" d="M96 251L97 252L96 251M102 251L103 252L102 251z"/>
<path style="fill:#667187; stroke:none;" d="M160 251L161 252L160 251M206 251L206 252L220 252L206 251z"/>
<path style="fill:#899091; stroke:none;" d="M220 251L221 252L220 251z"/>
<path style="fill:#667187; stroke:none;" d="M262 251L263 252L262 251M270 251L275 256L277 254L277 261C284.854 267.189 279.246 271.204 281.974 278.999C283.894 284.486 290.532 297.045 296.04 299.258C302.636 301.907 312.952 300 320 300C314.816 296.743 308.255 297.022 303.073 293.637C299.238 291.131 300.898 287.516 298.383 284.418C295.87 281.324 291.285 280.936 288.642 277.79C283.687 271.892 288.901 268.19 287.938 262.104C286.928 255.727 275.391 251.73 270 251z"/>
<path style="fill:#9c6b5a; stroke:none;" d="M43 260L49 258C47.3549 250.318 43.4674 254.463 43 260z"/>
<path style="fill:#667187; stroke:none;" d="M96 252L97 253L96 252M103 252L104 253L103 252M112.333 252.667L112.667 253.333L112.333 252.667z"/>
<path style="fill:#899091; stroke:none;" d="M221 252L228 266L228 265L225 265C225.53 260.255 226.251 253.743 221 252z"/>
<path style="fill:#667187; stroke:none;" d="M259 252L260 253L259 252M263 252L264 253L263 252M105 253L106 254L105 253z"/>
<path style="fill:#9c6b5a; stroke:none;" d="M106 253L107 254L106 253z"/>
<path style="fill:#667187; stroke:none;" d="M124 253L125 254L124 253M221 253L222 254L221 253z"/>
<path style="fill:#899091; stroke:none;" d="M245.667 253.333L246.333 253.667L245.667 253.333z"/>
<path style="fill:#667187; stroke:none;" d="M245 258L246 258L249 254C246.025 253.552 245.464 255.276 245 258z"/>
<path style="fill:#272e33; stroke:none;" d="M245 260C250.247 261.219 251.512 257.722 252 253C247.665 253.901 246.13 255.777 245 260z"/>
<path style="fill:#667187; stroke:none;" d="M95 254L96 255L95 254M109 254L109 255L112 255L109 254M222 254L223 265L224 265L222 254M260 254L260 257L261 257L260 254M94 256L95 257L94 256M121 256L122 257L121 256M131 256L132 257L131 256z"/>
<path style="fill:#899091; stroke:none;" d="M244 256L245 257L244 256M93 257L94 258L93 257M131 257L131 260L132 260L131 257M242.667 257.333L243.333 257.667L242.667 257.333z"/>
<path style="fill:#667187; stroke:none;" d="M251 257L252 258L251 257z"/>
<path style="fill:#899091; stroke:none;" d="M252 257L253 258L252 257z"/>
<path style="fill:#9c6b5a; stroke:none;" d="M41 258L42 259L41 258z"/>
<path style="fill:#667187; stroke:none;" d="M60.6667 258.333L61.3333 258.667L60.6667 258.333M93 258L94 259L93 258z"/>
<path style="fill:#899091; stroke:none;" d="M241 258C241.186 266.683 246.417 272.692 253 278L255 270L246 265L246 267L241 258z"/>
<path style="fill:#667187; stroke:none;" d="M56 259L56 260L59 260L56 259z"/>
<path style="fill:#899091; stroke:none;" d="M92 259L93 260L92 259z"/>
<path style="fill:#667187; stroke:none;" d="M250 259L251 260L250 259z"/>
<path style="fill:#899091; stroke:none;" d="M251 259L252 260L251 259M43 260L44 261L43 260z"/>
<path style="fill:#667187; stroke:none;" d="M52.6667 260.333L53.3333 260.667L52.6667 260.333M92 260L93 261L92 260M121 260L122 261L121 260M127 260L128 261L127 260M130.333 260.667L130.667 261.333L130.333 260.667z"/>
<path style="fill:#899091; stroke:none;" d="M250 260L249 263L250 260z"/>
<path style="fill:#667187; stroke:none;" d="M46 261L46 262L49 262L46 261z"/>
<path style="fill:#899091; stroke:none;" d="M90 261L91 262L90 261z"/>
<path style="fill:#667187; stroke:none;" d="M91 261L92 262L91 261z"/>
<path style="fill:#899091; stroke:none;" d="M131 261L132 262L131 261z"/>
<path style="fill:#667187; stroke:none;" d="M170 261L171 262L170 261M89 262L90 263L89 262M132 262L133 263L132 262z"/>
<path style="fill:#9c6b5a; stroke:none;" d="M133.667 262.333L134.333 262.667L133.667 262.333z"/>
<path style="fill:#899091; stroke:none;" d="M135 262L135 263L139 263L135 262z"/>
<path style="fill:#667187; stroke:none;" d="M164 262L165 263L164 262M123 263L124 264L123 263z"/>
<path style="fill:#272e33; stroke:none;" d="M74 264L74 267L75 267L74 264z"/>
<path style="fill:#899091; stroke:none;" d="M86.6667 264.333L87.3333 264.667L86.6667 264.333z"/>
<path style="fill:#667187; stroke:none;" d="M88 264L89 265L88 264z"/>
<path style="fill:#899091; stroke:none;" d="M84 265L85 266L84 265z"/>
<path style="fill:#667187; stroke:none;" d="M224 265L225 266L224 265z"/>
<path style="fill:#899091; stroke:none;" d="M34 266L31 276L37 270L37 269L34 266z"/>
<path style="fill:#667187; stroke:none;" d="M83 266L84 267L83 266M228.667 266.333L229.333 266.667L228.667 266.333z"/>
<path style="fill:#899091; stroke:none;" d="M230 266L230 267L235 267L230 266M81 267L82 268L81 267M236 267L237 268L236 267z"/>
<path style="fill:#667187; stroke:none;" d="M261 267L262 268L261 267z"/>
<path style="fill:#899091; stroke:none;" d="M80 268L81 269L80 268z"/>
<path style="fill:#667187; stroke:none;" d="M237 268L238 269L237 268z"/>
<path style="fill:#899091; stroke:none;" d="M238 268L239 269L238 268M79 269L80 270L79 269z"/>
<path style="fill:#667187; stroke:none;" d="M239 269L240 270L239 269z"/>
<path style="fill:#899091; stroke:none;" d="M240 269L241 270L240 269M255 269L256 270L255 269z"/>
<path style="fill:#667187; stroke:none;" d="M241 270L242 271L241 270z"/>
<path style="fill:#899091; stroke:none;" d="M242 270L243 271L242 270M78 271L79 272L78 271z"/>
<path style="fill:#667187; stroke:none;" d="M243 271L244 272L243 271z"/>
<path style="fill:#899091; stroke:none;" d="M244 271L245 272L244 271z"/>
<path style="fill:#667187; stroke:none;" d="M245 272L246 273L245 272M254 272L255 273L254 272M77 273L78 274L77 273z"/>
<path style="fill:#899091; stroke:none;" d="M247 273L248 274L247 273z"/>
<path style="fill:#9c6b5a; stroke:none;" d="M250 273L251 274L250 273z"/>
<path style="fill:#899091; stroke:none;" d="M75 274L76 275L75 274z"/>
<path style="fill:#667187; stroke:none;" d="M248 274L249 275L248 274M253 274L254 275L253 274M249 275L250 276L249 275z"/>
<path style="fill:#899091; stroke:none;" d="M29 276L30 277L29 276z"/>
<path style="fill:#667187; stroke:none;" d="M250 276L251 277L250 276M73 277L74 278L73 277M72 278L73 279L72 278M71 279L72 280L71 279M70 280L71 281L70 280M69 281L70 282L69 281z"/>
<path style="fill:#899091; stroke:none;" d="M68 283L69 284L68 283z"/>
<path style="fill:#667187; stroke:none;" d="M68 284L69 285L68 284z"/>
<path style="fill:#899091; stroke:none;" d="M67 286L68 287L67 286z"/>
<path style="fill:#667187; stroke:none;" d="M67 287L68 288L67 287z"/>
<path style="fill:#899091; stroke:none;" d="M66 289L67 290L66 289z"/>
<path style="fill:#667187; stroke:none;" d="M66 290L67 291L66 290z"/>
<path style="fill:#899091; stroke:none;" d="M65.3333 292.667L65.6667 293.333L65.3333 292.667z"/>
<path style="fill:#667187; stroke:none;" d="M65 294L65 298L66 298L65 294z"/>
</svg>
