<?xml version="1.0" standalone="yes"?>
<svg xmlns="http://www.w3.org/2000/svg" width="320" height="300">
<path style="fill:#655c58; stroke:none;" d="M0 0C4.21531 7.6853 15.1284 11.6935 20.706 19C24.2707 23.6696 21.3352 26.9223 21.1944 32C20.9591 40.4913 29.447 53.5773 25.8171 60.9992C19.0305 74.8756 0.0148747 66.75 0 86C8.54364 81.9413 16.8834 75.8451 24.8264 70.6659C28.3258 68.3841 30.8317 64.5516 35.0147 63.4298C44.9667 60.7608 57.892 65.2144 68 65.9105C98.4185 68.0053 128.138 71.5163 158 77.7145C170.967 80.4059 184.087 82.4119 197 85.3495C202.231 86.5395 208.245 86.9546 211 92C199.707 94.559 182.348 100.921 181 114L188 107L182 112C188.531 98.925 208.026 93.7143 221 89C213.157 80.4813 196.794 78.9397 186 76.5756C162.013 71.3224 134.365 67.4123 112 57C125.581 53.1371 135.808 51.7719 150 53.169C159.75 54.1288 172.296 57.379 181.891 54.2762C186.24 52.87 186.182 47.5277 188.262 44.0185C191.45 38.6425 196.071 35.7125 202 34L192 26L192 24L207 17L207 16L192.625 0.603394L174 0L175 6L152.345 8.13965L144.981 22.1813L118 25L118 30L117 30L117 26L115 26L113 31L117 39C94.8618 38.9976 68.94 35.9468 49 25.9614C32.3394 17.6183 19.4626 2.42737 0 0z"/>
<path style="fill:#98674c; stroke:none;" d="M4 0L4 1C10.1236 3.86447 17.2743 5.26715 23 8.81482C35.3517 16.4679 44.9866 25.6313 59 30.7323C76.6313 37.1501 98.3576 39 117 39L113 31L115 26L117 26L117 30L118 30L118 25L146.852 21.6968L155.04 7.26389L175 6L174 0L4 0z"/>
<path style="fill:#251e19; stroke:none;" d="M194 0C196.199 6.52032 201.449 12.0788 207 16L207 17L192 24L192 26L202 34C195.654 35.1326 190.933 38.4983 187.609 44.0185C185.014 48.3264 185.739 53.2175 179.985 54.517C156.853 59.7404 135.435 47.9649 112 57C120.564 62.6603 133.1 64.0136 143 66.1188C151.818 67.9939 160.18 71.6819 169 73.5471C185.965 77.1348 206.742 78.0906 221 89C208.964 92.009 186.232 99.2758 182 112C188.321 107.699 197.668 100.193 205.961 103.692C211.375 105.977 213.769 110.871 220 112C217.226 117.918 215.603 121.169 209 123L210 119L207 118L206 118L205 123L201 122C199.941 126.046 198.192 127.459 194 127L197 134L185 132L185 133L191 139L184 138L184 139L191 144L188 145L192 153L192 154L190 155L190 156L189 161L191 176C206.725 168.992 221.194 150.148 241 154L243 122L240 122L242 105L241 105L232 121L233 124L230 126L231 129L226 134L222 141L223 144L220 146L221 149L218 155L211 152C221.31 127.237 234.114 103.38 245.309 79C246.912 75.5089 255.114 53.0089 260.268 59.5525C262.392 62.2495 258.191 67.5305 257.002 70.0008C252.509 79.3266 246.525 89.9828 244 100C248.124 96.847 251.041 92.02 256 90.0093C272.709 83.2341 285.368 100.109 298.004 106.544C304.741 109.975 312.925 109.717 320 113L320 0L194 0M0 2L0 55L1 55L2 42C8.50076 45.8073 5.93216 53.7714 0 57L0 77C7.02669 73.1115 20.9318 69.7695 25.2577 62.9846C29.4977 56.3343 23.9636 48.6701 22.517 42C21.033 35.1576 24.0604 29.2198 23.2145 23C21.9638 13.8035 7.57159 5.53925 0 2z"/>
<path style="fill:#98674c; stroke:none;" d="M120 25L120 26L123 26L120 25z"/>
<path style="fill:#655c58; stroke:none;" d="M2 42L0 57C6.43541 54.8919 9.31253 44.7979 2 42M255 57L256 58L255 57z"/>
<path style="fill:#98674c; stroke:none;" d="M256 57L247 79C242.265 82.1283 240.226 89.9761 237.756 95C231.245 108.244 225.357 121.791 218.753 135C216.301 139.906 210.47 147.845 214 153L220 136L225 138L231 126L239.46 108L262 61L256 57z"/>
<path style="fill:#655c58; stroke:none;" d="M258 57L259 58L258 57M254 59L255 60L254 59M261 59L262 60L261 59M253 61L254 62L253 61M261 61L260 63L262 63L261 61z"/>
<path style="fill:#98674c; stroke:none;" d="M0 98C4.90064 96.3163 15.0744 92.7501 18.2978 88.7724C23.6987 82.1078 26.4833 68.9055 36.0934 65.912C43.4119 63.6324 56.7497 68.4353 64 70.2693C85.3766 75.6767 106.733 84.2597 128.17 88.7261C150.16 93.3079 177.121 86.5902 198 95C190.768 97.3847 183.056 102.287 181 110L182 110C187.351 99.7149 200.684 95.6914 211 92C209.254 86.6859 202.885 86.4607 198 85.3495C185.43 82.4899 172.666 80.3134 160 77.9051C129.664 72.1371 99.8461 68.0347 69 65.9105C58.1413 65.1627 45.8624 61.2541 35.0147 63.2276C30.3735 64.072 27.7198 68.269 23.9097 70.6659C11.4531 78.5025 0 81.9626 0 98z"/>
<path style="fill:#655c58; stroke:none;" d="M252 63L253 64L252 63M259 64L260 65L259 64z"/>
<path style="fill:#a39e9f; stroke:none;" d="M0 109C11.411 107.863 22.1785 101.927 34 103.174C60.1149 105.927 79.0489 124.271 103 131L76 149L107 162C99.0677 172.132 83.7491 177.545 73 184.319C69.4531 186.554 64.4447 191.094 60 190.612C51.5926 189.7 43.3233 181.398 35 179L35 180L55 192L55 193L43 196L45 190C33.9856 196.203 49.3127 201.111 55.9105 197.84C70.6896 190.511 84.3008 180.062 99 172.298C106.027 168.586 117.786 165.452 123.377 159.929C126.306 157.036 122.363 154.868 120 154L120 153C129.082 155.615 132.706 157.138 142 154L146 157L146 158L97 184L99 188L99 189C93.4887 191.721 88.3387 191.882 85 186C80.6056 185.495 77.8314 185.033 77 190L89 194L73 202L73 204L79 205L77 202C83.674 199.221 88.5443 195.682 96 197L95 200L103 202L103 205L107 204L106 206L109 205L112 209L111 207L114 208L114 207L99 199L109 202L108 200L111 201L111 200L106 200L96 193L107 192L109 196C106.521 186.606 120.481 194.72 124 196L124 195L121 194L121 193L128 194L128 192L107 189L107 187L137 175.589L156 183L156 196L139 207L139 208L144 206L143 208L155 202L162 219L166 218L176 229L179 228L179 233L187 235L187 236L183 237L185 239L180 243C187.528 238.296 199.066 231.072 203 223L193 208L184 218L183 218L180 217L185 196L182 196L182 195C185.232 190.745 187.782 186.56 186.609 181C184.919 172.988 177.2 163.885 169 170C165.577 163.86 151.953 156.077 153.207 148.999C154.199 143.396 160.381 140.367 162 135C169.243 134.033 183.197 122.607 188 117L189 109L194 107L180 115C181.504 104.821 189.065 99.0704 198 95C190.48 90.7037 179.395 92 171 92C157.621 92 143.287 90.5883 130.039 88.8673C106.3 85.7832 82.8463 73.2238 59 68.9229C52.5981 67.7682 41.4654 63.3685 35.1844 65.7816C25.3637 69.5547 23.6788 82.1067 17.581 88.7724C8.95345 98.2034 0 92.977 0 109z"/>
<path style="fill:#655c58; stroke:none;" d="M258.333 66.6667L258.667 67.3333L258.333 66.6667M257 68L258 69L257 68M249 70L250 71L249 70M256 71L257 72L256 71M248 72L249 73L248 72M255 72L256 73L255 72M247 74L248 75L247 74M254 75L255 76L254 75M246 76L247 77L246 76z"/>
<path style="fill:#a39e9f; stroke:none;" d="M251 76L251 79L252 79L251 76z"/>
<path style="fill:#655c58; stroke:none;" d="M254 77L255 78L254 77M245 78L246 79L245 78z"/>
<path style="fill:#a39e9f; stroke:none;" d="M246 78L247 79L246 78z"/>
<path style="fill:#655c58; stroke:none;" d="M253 79L254 80L253 79M244 80L245 81L244 80M252 80L253 81L252 80M251 82L252 83L251 82M250 84L251 85L250 84M242 85L243 86L242 85M249 86L250 87L249 86M241 87L242 88L241 87M248.333 88.6667L248.667 89.3333L248.333 88.6667M240 89L241 90L240 89M248 97C254.921 92.7476 259.731 90.0064 268 90C260.592 86.8917 251.474 89.7265 248 97M247.333 90.6667L247.667 91.3333L247.333 90.6667z"/>
<path style="fill:#98674c; stroke:none;" d="M243 154L229 155L229 156C233.489 155.699 235.823 155.56 239 159L245 155L247 159L242.846 144.996L250 125L246 126L248 104L245 104L260 94L265 100L266 100L269 98L268 96L277 94L277 95L276 100L267 100C267.352 104.896 267.29 110.255 262.116 112.653C258.827 114.176 256.059 112.428 254 116C258.064 116.186 258.707 118.158 259 122L253 119L254 123L253 127L258 126L255 134L259 134L250.517 157.867L222 169L215 163L227 160L228 156C214.069 160.635 198.912 165.183 191 179L190 179L188 159L188 158L185 153L188 152L186 146L183 145L184 142L181 141L183 139L181 136L187 136L187 135L181 132L181 131L191 131L188 126L194 124L193 120L211 112L211 111L203.892 104.218L188 107L188 108L194 107L189 109L188 117L162 135C159.684 139.656 154.26 142.846 152.912 148C150.868 155.817 164.671 164.389 169 170C183.357 161.695 186.029 182.907 187 192L188 192C189.18 181.504 199.361 180.866 206 187L191 196L191 197C197.572 196.978 209.236 194.559 208 186L209 185C213.559 186.385 218.723 187.512 223 185L220 185L219 184L219 181L240 189L215 197.691L199.108 201.032L191 208L191 209L194 209C193.031 215.481 199.415 221.011 204 225L205 224L199 216L205 217L205 214C216.807 214 226.579 212.627 238 209.741C242.134 208.696 247.71 209.591 249 205C254.109 205.606 261.441 201.84 257.142 195.725C254.564 192.06 250.035 191.061 246 190L266.917 185.583L273.5 167L283.194 128L289 111C297.552 113.581 294.989 128.955 294 136L297 140C288.189 141.477 287.345 151.78 286 159L289 157C295.511 157.683 300.875 152.126 305.425 147.985C315.688 138.647 326.095 127.544 316 114L317 113L320 114C313.46 107.959 305.352 110.976 298.004 107.427C290.622 103.863 285.823 96.3437 278 92.6335C262.194 85.1368 242.909 93.9505 240.801 112C240.04 118.516 243.754 125.307 243.957 132C244.198 139.97 238.893 146.303 243 154z"/>
<path style="fill:#655c58; stroke:none;" d="M272 90L273 91L272 90M239 91L240 92L239 91M275 91L276 92L275 91M246.333 92.6667L246.667 93.3333L246.333 92.6667M278 92L279 93L278 92M238 93L239 94L238 93M279 93L280 94L279 93M245 94L246 95L245 94z"/>
<path style="fill:#a39e9f; stroke:none;" d="M260 94L245 104L248 104L246 126L250 125L242.503 145.985L247 159L245 155L239 159C235.992 154.112 228.906 154.239 227 160L215 163L222 169C230.042 166.954 245.913 164.401 251.276 157.867C255.369 152.88 257.118 140.413 259 134L255 134L258 126L253 127L254 123L253 119L259 122C258.868 117.985 258.505 115.312 254 116C260.404 109.917 269.697 112.924 267 100L276 100L277 95L277 94L268 96L269 98L266 100L265 100L260 94z"/>
<path style="fill:#655c58; stroke:none;" d="M281 94L282 95L281 94M237 95L238 96L237 95z"/>
<path style="fill:#a39e9f; stroke:none;" d="M279 95L280 96L279 95z"/>
<path style="fill:#655c58; stroke:none;" d="M299 95L299 96L315 104C311.776 98.7455 304.873 96.0437 299 95M244.333 96.6667L244.667 97.3333L244.333 96.6667M284 96L285 97L284 96M236 97L237 98L236 97M246 98L247 99L246 98z"/>
<path style="fill:#98674c; stroke:none;" d="M255 98L256 99L255 98z"/>
<path style="fill:#655c58; stroke:none;" d="M288 98L289 99L288 98M235 99L236 100L235 99M243 99L242 106L243 99M245 99L246 100L245 99M289 99L290 100L289 99M290 100L292 102L292 100L290 100M201.667 102.333L202.333 102.667L201.667 102.333M234 102L235 103L234 102z"/>
<path style="fill:#98674c; stroke:none;" d="M254 102L253 108L258 103L254 102z"/>
<path style="fill:#655c58; stroke:none;" d="M292 102L300 108L300 107L292 102z"/>
<path style="fill:#c6c6c9; stroke:none;" d="M0 109L0 172C0 178.582 -2.38082 191.01 1.02778 196.787C5.36636 204.141 22.5465 210.002 30 214.139C55.0178 228.023 80.3247 241.519 105 256.011C112.473 260.4 129.222 274.496 138 273.273C143.357 272.527 148.86 266.395 153 263.235C163.565 255.17 173.919 246.322 185 239L183 237L187 236L187 235L179 233L179 228L176 229L166 218L162 219L155 202C142.812 205.857 121.812 215.807 114 226L114 227C118.018 233.939 108.088 235.724 103.145 232.821C93.2883 227.032 106.178 223.158 112 225L112 224L73 204L73 202L89 194L77 190C78.3433 185.674 80.8378 185.806 85 186C87.2393 192.555 94.025 192.269 99 189L99 188L97 184L146 158L146 157L142 154L120 153L120 154C129.878 159.583 113.856 164.253 109 166.742C90.5926 176.178 73.419 188.922 54.9606 197.84C48.5184 200.952 36.6313 197.146 45 190L43 196L55 193L55 192L35 180L35 179C42.6616 182.19 51.8585 190.181 60 191.137C64.4988 191.666 69.4134 187.199 73 184.95C82.7725 178.821 101.578 172.462 107 162L76 149C83.2149 140.09 97.8457 141.487 103 131C80.7105 120.892 59.3786 104.941 34 103.09C22.1215 102.224 11.4017 107.062 0 109z"/>
<path style="fill:#655c58; stroke:none;" d="M197 103L197 104L200 104L197 103M203 103L203 104L211 111L211 112L193 120L194 124L188 126L191 131L181 131L181 132L186 134L197 134L194 127C198.415 128.058 200.35 126.419 201 122L205 123L206 118L207 118L210 119L209 123C215.916 121.8 217.854 118.338 220 112L203 103M194.667 104.333L195.333 104.667L194.667 104.333M233 104L234 105L233 104M316 104L317 105L316 104M192 105L193 106L192 105M240.333 105.667L240.667 106.333L240.333 105.667M189 106L190 107L189 106M232 106L233 107L232 106M241 107L242 108L241 107z"/>
<path style="fill:#98674c; stroke:none;" d="M187 108L188 109L187 108z"/>
<path style="fill:#655c58; stroke:none;" d="M231 108L232 109L231 108M239 108L240 109L239 108M300 108L300 109L306 109L300 108M238.333 109.667L238.667 110.333L238.333 109.667M310 109L310 110L314 110L310 109M230 110L231 111L230 110M315 110L316 111L315 110z"/>
<path style="fill:#98674c; stroke:none;" d="M180 111L180 115L181 115L180 111z"/>
<path style="fill:#655c58; stroke:none;" d="M240 111L240 114L241 114L240 111M289 111L283.333 126L273.333 166L267.833 184L246 190C254.487 192.98 264.962 204.884 249 205L238 209.446L205 214L205 217L199 216C200.917 219.804 202.674 222.273 207 223C210.519 215.773 227.829 222.465 233 215L240 216C240 211.431 259.328 209.482 263.667 205.667C280.097 191.219 294.745 172.451 307.833 155C313.913 146.894 320 143.686 320 133C310.705 140.43 301.93 156.057 289 157L286 159C287.764 151.68 288.63 142.53 297 140L294 136C295.685 129.356 297.908 112.474 289 111z"/>
<path style="fill:#98674c; stroke:none;" d="M183 112L184 113L183 112M213 112L210 113L215 117L216 113L213 112z"/>
<path style="fill:#655c58; stroke:none;" d="M229 112L230 113L229 112M237.333 112.667L237.667 113.333L237.333 112.667M318 112L319 113L318 112z"/>
<path style="fill:#98674c; stroke:none;" d="M182 113L183 114L182 113z"/>
<path style="fill:#a39e9f; stroke:none;" d="M317 113L316 114L320 118L317 113z"/>
<path style="fill:#655c58; stroke:none;" d="M228 114L229 115L228 114M230 114L233 116L233 115L230 114M236.333 114.667L236.667 115.333L236.333 114.667M235.333 116.667L235.667 117.333L235.333 116.667M240 116C240.013 119.194 239.597 121.271 243 122L240 116M227 117L228 118L227 117M226 118L227 119L226 118M230 118L227 124C229.64 122.464 230.818 121.061 230 118M234.333 118.667L234.667 119.333L234.333 118.667M233 120L234 121L233 120z"/>
<path style="fill:#a39e9f; stroke:none;" d="M48 121L49 122L48 121z"/>
<path style="fill:#655c58; stroke:none;" d="M225 121L226 122L225 121M231 121L233 124L231 121z"/>
<path style="fill:#a39e9f; stroke:none;" d="M51 122L71.4506 135.954L75.8248 134.696L71.9807 129.388L51 122z"/>
<path style="fill:#98674c; stroke:none;" d="M228 122L229 123L228 122z"/>
<path style="fill:#655c58; stroke:none;" d="M224 123L225 124L224 123M230 124L231 125L230 124z"/>
<path style="fill:#a39e9f; stroke:none;" d="M258.333 124.667L258.667 125.333L258.333 124.667z"/>
<path style="fill:#655c58; stroke:none;" d="M223 125L224 126L223 125M231 125L232 126L231 125M225 126L222 133L223 134L226 133L224 130L228 126L225 126z"/>
<path style="fill:#251e19; stroke:none;" d="M226 126L227 127L226 126z"/>
<path style="fill:#655c58; stroke:none;" d="M229 126L226 134L231 129L231 128L229 126M222 127L223 128L222 127z"/>
<path style="fill:#251e19; stroke:none;" d="M225.333 127.667L225.667 128.333L225.333 127.667z"/>
<path style="fill:#655c58; stroke:none;" d="M243 127L243 130L244 130L243 127z"/>
<path style="fill:#a39e9f; stroke:none;" d="M175.667 128.333L176.333 128.667L175.667 128.333z"/>
<path style="fill:#251e19; stroke:none;" d="M287 128L283 146L284 146L292 131L288 132L289 128L287 128z"/>
<path style="fill:#655c58; stroke:none;" d="M221 129L222 130L221 129z"/>
<path style="fill:#251e19; stroke:none;" d="M224.667 130.333L225.333 130.667L224.667 130.333z"/>
<path style="fill:#c6c6c9; stroke:none;" d="M104 131L105 132L104 131z"/>
<path style="fill:#655c58; stroke:none;" d="M220 131L221 132L220 131z"/>
<path style="fill:#c6c6c9; stroke:none;" d="M152 141L160 133C155.113 133.761 152.97 136.21 152 141z"/>
<path style="fill:#655c58; stroke:none;" d="M219 133L220 134L219 133z"/>
<path style="fill:#251e19; stroke:none;" d="M222 133L222 135L224 135L222 133z"/>
<path style="fill:#655c58; stroke:none;" d="M186 134L181 136L181 141L184 142L183 145L186 146L188 152L185 153L188 158L188 159L190 179L191 179L193 176L189 161L190 156L190 155L192 154L192 153L188 145L191 144L184 139L184 138L191 139L186 134M221 134L222 135L221 134M218 135L219 136L218 135M222.667 135.333L223.333 135.667L222.667 135.333M226 135L227 136L226 135M220 136L214 150L215 150L217 145L218 145L214 154L218 155L221 149L220 146L223 144L221 141L226 136L220 136z"/>
<path style="fill:#c6c6c9; stroke:none;" d="M104 139L110 143L115 138L104 139z"/>
<path style="fill:#655c58; stroke:none;" d="M217 137L218 138L217 137z"/>
<path style="fill:#251e19; stroke:none;" d="M221 137L220 140L221 137z"/>
<path style="fill:#655c58; stroke:none;" d="M243.333 137.667L243.667 138.333L243.333 137.667M216 139L217 140L216 139z"/>
<path style="fill:#98674c; stroke:none;" d="M222 139L223 140L222 139M132 140L132 141L135 141L132 140z"/>
<path style="fill:#655c58; stroke:none;" d="M242 140L243 141L242 140z"/>
<path style="fill:#98674c; stroke:none;" d="M221.333 141.667L221.667 142.333L221.333 141.667z"/>
<path style="fill:#251e19; stroke:none;" d="M319 141C303.824 163.342 283.176 186.118 263.583 204.681C258.949 209.071 240.874 210.57 240 216L233 215L207.749 220.738L155 262.4L134.424 277.62L124 272.719L97 257.201L0 202L2 205C-1.81057 207.286 0.529821 215.338 4 211C5.22481 215.787 6.66359 219.51 4 224L7 227L2 225L4 227L3 230L7 232L3 231L3 232L10 240L10 241L6 240L4 246L7 247L5 248L5 249L10 252L5 251L5 252L7 252L7 253C3.76694 252.837 0.81532 251.273 0 255L6 260L5 260L4 258L1 260L1 261L8 262L6 265L1 264L4 267L4 268L0 267L4 281L0 280L0 300L320 300L320 173L297 190C294.627 177.545 303.984 169.046 311.729 160C316.009 155.001 321.845 147.798 319 141z"/>
<path style="fill:#a39e9f; stroke:none;" d="M5 142C6.56354 146.522 11.4129 149.072 16 148C13.4399 143.684 9.90514 142.316 5 142z"/>
<path style="fill:#655c58; stroke:none;" d="M241.333 142.667L241.667 143.333L241.333 142.667z"/>
<path style="fill:#98674c; stroke:none;" d="M140 143L146 146L140 143z"/>
<path style="fill:#251e19; stroke:none;" d="M218 143L219 144L218 143z"/>
<path style="fill:#a39e9f; stroke:none;" d="M25 145L26 146L25 145z"/>
<path style="fill:#c6c6c9; stroke:none;" d="M84 145L85 148L89 145L84 145z"/>
<path style="fill:#251e19; stroke:none;" d="M217 145L214 151L217 145z"/>
<path style="fill:#98674c; stroke:none;" d="M219 145L220 146L219 145z"/>
<path style="fill:#a39e9f; stroke:none;" d="M27 146L27 147L34 149L34 148L27 146z"/>
<path style="fill:#655c58; stroke:none;" d="M213 146L214 147L213 146M240 146L240 151L241 151L240 146z"/>
<path style="fill:#c6c6c9; stroke:none;" d="M91 149L91 151L100 151L100 149L91 149z"/>
<path style="fill:#655c58; stroke:none;" d="M195 148L200 153L195 148M212 148L213 149L212 148z"/>
<path style="fill:#98674c; stroke:none;" d="M195 149L196 153L197 153L198 151L195 149z"/>
<path style="fill:#655c58; stroke:none;" d="M319 149C310.227 160.179 293.195 175.25 297 190C307.411 187.525 319.962 175.811 320 165L316 168C319.808 162.424 321.774 155.611 319 149z"/>
<path style="fill:#98674c; stroke:none;" d="M98 154L98 156L107 160L113 155L113 153C106.855 149.562 103.965 151.1 98 154M146 150C146.654 153.054 148.007 152.936 151 153L150 150L149 150C149.684 153.421 147.488 152.048 148 150L146 150z"/>
<path style="fill:#655c58; stroke:none;" d="M211.333 150.667L211.667 151.333L211.333 150.667z"/>
<path style="fill:#c6c6c9; stroke:none;" d="M116 151L116 152L120 153L120 152L116 151z"/>
<path style="fill:#655c58; stroke:none;" d="M147 151L147 152L150 152L147 151M195 151L196 152L195 151z"/>
<path style="fill:#a39e9f; stroke:none;" d="M196 151L197 152L196 151M16 152C19.267 158.042 27.2597 161.126 31 154L30 153L16 152M75 153L75 155L95 163C88.3629 171.899 74.8209 165.537 69 158L60 163L81 173L81 174C76.2449 176.049 71.1805 180.676 66 181.289C58.9151 182.127 48.4212 173.959 43 170L42 173C48.891 175.969 55.4871 182.373 63 183.566C67.0416 184.209 70.6363 181.904 74 180C81.5368 175.734 98.4216 170.71 101 162C93.2387 159.358 83.1954 151.417 75 153M197 152L198 159L199 159L200 157L197 152z"/>
<path style="fill:#655c58; stroke:none;" d="M212 152L213 153L212 152M241 152L241 154L243 154L241 152M196 153L196 157L197 157L196 153z"/>
<path style="fill:#98674c; stroke:none;" d="M198 153L200 155L200 153L198 153z"/>
<path style="fill:#655c58; stroke:none;" d="M235 153L235 154L240 154L235 153z"/>
<path style="fill:#c6c6c9; stroke:none;" d="M21 154L21 155L24 155L21 154z"/>
<path style="fill:#655c58; stroke:none;" d="M200 154L200 157L201 157L200 154M231.667 154.333L232.333 154.667L231.667 154.333M240 154L241 155L240 154M228 155L229 156L228 155z"/>
<path style="fill:#c6c6c9; stroke:none;" d="M111 160L117 157L111 160z"/>
<path style="fill:#98674c; stroke:none;" d="M198.667 157.333L199.333 157.667L198.667 157.333z"/>
<path style="fill:#655c58; stroke:none;" d="M224 157L225 158L224 157M197 158L197 164L198 164L197 158M199 158L200 159L199 158M220.667 158.333L221.333 158.667L220.667 158.333z"/>
<path style="fill:#98674c; stroke:none;" d="M198 159L199 160L198 159z"/>
<path style="fill:#655c58; stroke:none;" d="M215.667 159.333L216.333 159.667L215.667 159.333z"/>
<path style="fill:#c6c6c9; stroke:none;" d="M154 160L155 161L154 160z"/>
<path style="fill:#655c58; stroke:none;" d="M212 160L213 161L212 160z"/>
<path style="fill:#98674c; stroke:none;" d="M63 162L63 163L69 163L63 162z"/>
<path style="fill:#655c58; stroke:none;" d="M210 161L211 162L210 161M64 162L64 163L71 165L71 164L64 162z"/>
<path style="fill:#c6c6c9; stroke:none;" d="M148 163L154 164L148 163z"/>
<path style="fill:#a39e9f; stroke:none;" d="M213 162L208 166L213 162z"/>
<path style="fill:#98674c; stroke:none;" d="M65 163L66 164L65 163M70 163L71 164L70 163z"/>
<path style="fill:#655c58; stroke:none;" d="M207 163L208 164L207 163z"/>
<path style="fill:#98674c; stroke:none;" d="M66.6667 164.333L67.3333 164.667L66.6667 164.333M71 164L72 165L71 164M316 168L320 164L316 168M68.6667 165.333L69.3333 165.667L68.6667 165.333z"/>
<path style="fill:#c6c6c9; stroke:none;" d="M101 185C105.119 187.215 109.157 184.168 113 182.247C121.95 177.773 134.538 173.798 141 166L101 185z"/>
<path style="fill:#98674c; stroke:none;" d="M145 166L145 167L148 167L145 166z"/>
<path style="fill:#655c58; stroke:none;" d="M203 166L204 167L203 166M202 167L203 168L202 167z"/>
<path style="fill:#98674c; stroke:none;" d="M78 168L78 170L80 168L78 168z"/>
<path style="fill:#655c58; stroke:none;" d="M201 168L202 169L201 168z"/>
<path style="fill:#98674c; stroke:none;" d="M153 169L154 170L153 169z"/>
<path style="fill:#655c58; stroke:none;" d="M153 171L156 171L155 169L153 171z"/>
<path style="fill:#98674c; stroke:none;" d="M155 169L156 170L155 169z"/>
<path style="fill:#c6c6c9; stroke:none;" d="M174 169L176 174L177 174L174 169z"/>
<path style="fill:#a39e9f; stroke:none;" d="M59 173L59 175C65.4624 178.521 68.5354 178.754 75 175C70.1098 170.255 64.8324 169.75 59 173z"/>
<path style="fill:#c6c6c9; stroke:none;" d="M143 173L150 170L143 173z"/>
<path style="fill:#98674c; stroke:none;" d="M156 170L157 171L156 170z"/>
<path style="fill:#c6c6c9; stroke:none;" d="M171 170L178 191L179 191L176 183C176.403 178.018 174.318 173.672 171 170z"/>
<path style="fill:#98674c; stroke:none;" d="M137 172L137 173L140 173L140 172L137 172z"/>
<path style="fill:#655c58; stroke:none;" d="M138 172L139 173L138 172z"/>
<path style="fill:#98674c; stroke:none;" d="M162 172L162 173L164 175L165 175L166 173L162 172z"/>
<path style="fill:#655c58; stroke:none;" d="M196 172L197 173L196 172M162 175L165 173L162 175M195 173L196 174L195 173z"/>
<path style="fill:#a39e9f; stroke:none;" d="M27 174L30 177L27 174z"/>
<path style="fill:#98674c; stroke:none;" d="M167 174L167 175L172 176L167 174z"/>
<path style="fill:#655c58; stroke:none;" d="M194 174L195 175L194 174z"/>
<path style="fill:#c6c6c9; stroke:none;" d="M107 187L107 189L128 192L128 194L127 195L121 193L121 194L138 202L138 203C127.102 209.758 116.866 198.13 106 195L107 192C102.681 190.023 100.073 190.73 96 193L106 198.186L127 208L127 211C115.378 214.238 105.555 204.796 95 200L96 197C88.694 195.282 83.2294 198.364 77 202L91 210.756L113 220.574L126 214.78L156 196L156 183L137 175.314L107 187z"/>
<path style="fill:#98674c; stroke:none;" d="M146 175L146 177L148 175L146 175z"/>
<path style="fill:#655c58; stroke:none;" d="M148 175L147 177L149 177L148 175z"/>
<path style="fill:#98674c; stroke:none;" d="M149.333 175.667L149.667 176.333L149.333 175.667M161 175L162 176L161 175z"/>
<path style="fill:#655c58; stroke:none;" d="M193 175L194 176L193 175z"/>
<path style="fill:#98674c; stroke:none;" d="M160 176L161 177L160 176z"/>
<path style="fill:#655c58; stroke:none;" d="M171 176C169.012 180.038 166.502 181.734 162 182L162 183L171 187L171 188L146 204L146 205C153.711 202.077 172.275 193.037 175 185L169 184L169 182L173 181L171 176z"/>
<path style="fill:#a39e9f; stroke:none;" d="M172.333 176.667L172.667 177.333L172.333 176.667z"/>
<path style="fill:#98674c; stroke:none;" d="M158 177L162 183L159 181L160 177L158 177M156 178L157 179L156 178z"/>
<path style="fill:#655c58; stroke:none;" d="M155 180C157.396 180.575 157.487 180.475 158 178L155 180z"/>
<path style="fill:#98674c; stroke:none;" d="M170 178L171 179L170 178M172 178L173 179L172 178M154 179L155 180L154 179M169 179L170 180L169 179z"/>
<path style="fill:#a39e9f; stroke:none;" d="M173 179L174 180L173 179z"/>
<path style="fill:#98674c; stroke:none;" d="M155 180L156 181L155 180M168 180L169 181L168 180M173 180L169 182L169 184L175 188L176 188L173 180z"/>
<path style="fill:#655c58; stroke:none;" d="M219 181L219 184L220 185L223 185L209 185L208 186L208 191L210 188L230 186L230 185L219 181z"/>
<path style="fill:#98674c; stroke:none;" d="M163.667 182.333L164.333 182.667L163.667 182.333z"/>
<path style="fill:#a39e9f; stroke:none;" d="M174 182L175 183L174 182M206 187C204.775 185.392 203.822 183.942 201.941 183.007C186.207 175.183 185.019 204.478 198.998 192.856C201.374 190.881 203.469 188.783 206 187z"/>
<path style="fill:#655c58; stroke:none;" d="M290 182L294 186L290 182z"/>
<path style="fill:#98674c; stroke:none;" d="M162 183L163 184L162 183M290 183L291 184L290 183z"/>
<path style="fill:#a39e9f; stroke:none;" d="M175 184L176 185L175 184M290 184L293 187L290 184z"/>
<path style="fill:#98674c; stroke:none;" d="M98 185L99 186L98 185M167 185L168 186L167 185M290 185L291 186L290 185M292 185L293 186L292 185z"/>
<path style="fill:#655c58; stroke:none;" d="M78 186C78.6544 189.054 80.0066 188.936 83 189L78 186z"/>
<path style="fill:#98674c; stroke:none;" d="M169 186L170 187L169 186z"/>
<path style="fill:#251e19; stroke:none;" d="M172 186L172 188L174 186L172 186M210 188C205.068 196.315 190.981 201.581 187 190L186 190L180 214L184 217L185 217L198.224 200.027L212 197.37L233 189L233 187L210 188z"/>
<path style="fill:#655c58; stroke:none;" d="M232 186L233 187L232 186M233 187L233 189L240 189L239 186L233 187z"/>
<path style="fill:#a39e9f; stroke:none;" d="M288 186L291 192L288 186z"/>
<path style="fill:#655c58; stroke:none;" d="M290 186L290 189L291 189L290 186z"/>
<path style="fill:#98674c; stroke:none;" d="M293 186L292 188L294 188L293 186z"/>
<path style="fill:#251e19; stroke:none;" d="M79 187L80 188L79 187z"/>
<path style="fill:#98674c; stroke:none;" d="M170 187L171 188L170 187M289 187L290 188L289 187z"/>
<path style="fill:#251e19; stroke:none;" d="M290 187L291 188L290 187z"/>
<path style="fill:#655c58; stroke:none;" d="M294 187L293 190L300 193L294 187M51 188L51 189L57 196L58 196L59 192L51 188z"/>
<path style="fill:#98674c; stroke:none;" d="M52 188L53 189L52 188z"/>
<path style="fill:#655c58; stroke:none;" d="M101 188L101 189L105 189L101 188z"/>
<path style="fill:#98674c; stroke:none;" d="M169 188L170 189L169 188M173 188L174 189L173 188z"/>
<path style="fill:#251e19; stroke:none;" d="M268.333 188.667L268.667 189.333L268.333 188.667M291 188L293 193L294 188L291 188z"/>
<path style="fill:#a39e9f; stroke:none;" d="M47 189L48 190L47 189z"/>
<path style="fill:#98674c; stroke:none;" d="M171 189L172 190L171 189z"/>
<path style="fill:#655c58; stroke:none;" d="M186 189L187 190L186 189M231.667 189.333L232.333 189.667L231.667 189.333z"/>
<path style="fill:#98674c; stroke:none;" d="M284 189L284 192L285 192L284 189z"/>
<path style="fill:#655c58; stroke:none;" d="M285 189L287 191L285 189M288 189L288 192L289 192L288 189z"/>
<path style="fill:#98674c; stroke:none;" d="M290 189L291 190L290 189M294 189L295 190L294 189M185 190L182 195L185 190z"/>
<path style="fill:#655c58; stroke:none;" d="M229.667 190.333L230.333 190.667L229.667 190.333z"/>
<path style="fill:#a39e9f; stroke:none;" d="M285.333 190.667L285.667 191.333L285.333 190.667z"/>
<path style="fill:#655c58; stroke:none;" d="M291 190L292 191L291 190M107 194L111 196L110 193L134 202L132 207L137 202C130.295 199.249 112.413 186.502 107 194z"/>
<path style="fill:#98674c; stroke:none;" d="M114 191L115 192L114 191z"/>
<path style="fill:#c6c6c9; stroke:none;" d="M117 191L118 192L117 191z"/>
<path style="fill:#a39e9f; stroke:none;" d="M154 191L155 192L154 191z"/>
<path style="fill:#98674c; stroke:none;" d="M165 191L166 192L165 191M168 191L169 192L168 191z"/>
<path style="fill:#655c58; stroke:none;" d="M185 191L182 196C184.749 195.042 185.801 193.908 185 191M228 191L229 192L228 191z"/>
<path style="fill:#251e19; stroke:none;" d="M264 191L266 195L264 191z"/>
<path style="fill:#98674c; stroke:none;" d="M286 191L287 192L286 191M291 191L290 193L291 191M294 191L295 192L294 191z"/>
<path style="fill:#a39e9f; stroke:none;" d="M295 191L294 192L295 195L292 196L292 197L298 199L297 192L295 191z"/>
<path style="fill:#98674c; stroke:none;" d="M116 192L117 193L116 192z"/>
<path style="fill:#c6c6c9; stroke:none;" d="M119.667 192.333L120.333 192.667L119.667 192.333z"/>
<path style="fill:#98674c; stroke:none;" d="M124 192L125 193L124 192z"/>
<path style="fill:#c6c6c9; stroke:none;" d="M179 192L181 195L179 192z"/>
<path style="fill:#655c58; stroke:none;" d="M187 192L188 193L187 192M205 192L206 193L205 192M196 202L228 193C223.262 191.599 198.52 198.112 196 202M284 192L284 193L287 193L284 192M291 192L292 193L291 192M293 192L292 194L293 192z"/>
<path style="fill:#c6c6c9; stroke:none;" d="M295.667 192.333L296.333 192.667L295.667 192.333z"/>
<path style="fill:#98674c; stroke:none;" d="M297 192L297 198L299 192L297 192z"/>
<path style="fill:#655c58; stroke:none;" d="M50 193L50 194L53 194L50 193z"/>
<path style="fill:#c6c6c9; stroke:none;" d="M55 193L50 196C52.8576 197.527 55.7878 196.604 55 193z"/>
<path style="fill:#655c58; stroke:none;" d="M90 193L90 195L96 196L90 193z"/>
<path style="fill:#a39e9f; stroke:none;" d="M110 193L110 197L115 199L114 197L115 197L118 198L116 200L127 205L128 202L125 201L126 203L125 203L122 202L122 201L131 202L129 204L133 204C128.995 197.89 116.935 194.365 110 193z"/>
<path style="fill:#98674c; stroke:none;" d="M112 193L112 194L116 194L112 193M118 193L119 194L118 193M126 193L127 194L126 193M188 193L189 194L188 193z"/>
<path style="fill:#a39e9f; stroke:none;" d="M284 193L285 196L286 196L284 193z"/>
<path style="fill:#98674c; stroke:none;" d="M292 196L295 193L292 196z"/>
<path style="fill:#a39e9f; stroke:none;" d="M298.333 193.667L298.667 194.333L298.333 193.667z"/>
<path style="fill:#655c58; stroke:none;" d="M41 194L43 197L41 194z"/>
<path style="fill:#98674c; stroke:none;" d="M94 194L95 195L94 194M117 194L118 195L117 194M120 194L121 195L120 194z"/>
<path style="fill:#655c58; stroke:none;" d="M188 194L189 195L188 194M202 194L203 195L202 194z"/>
<path style="fill:#98674c; stroke:none;" d="M284 194L285 195L284 194z"/>
<path style="fill:#655c58; stroke:none;" d="M286 194L288 199L289 199L286 194M46.6667 195.333L47.3333 195.667L46.6667 195.333z"/>
<path style="fill:#98674c; stroke:none;" d="M109 195L110 196L109 195z"/>
<path style="fill:#c6c6c9; stroke:none;" d="M114 195L114 196L124 200L124 199L114 195z"/>
<path style="fill:#98674c; stroke:none;" d="M118.667 195.333L119.333 195.667L118.667 195.333M162 195L163 196L162 195M189 195L190 196L189 195z"/>
<path style="fill:#655c58; stroke:none;" d="M200 195L201 196L200 195z"/>
<path style="fill:#98674c; stroke:none;" d="M286 195L286 197L288 197L286 195z"/>
<path style="fill:#655c58; stroke:none;" d="M299.333 195.667L299.667 196.333L299.333 195.667M112.667 196.333L113.333 196.667L112.667 196.333z"/>
<path style="fill:#98674c; stroke:none;" d="M120 196L121 197L120 196M124 196L125 197L124 196z"/>
<path style="fill:#a39e9f; stroke:none;" d="M125 196L125 197L131 199L131 198L125 196z"/>
<path style="fill:#98674c; stroke:none;" d="M160 196L161 197L160 196z"/>
<path style="fill:#655c58; stroke:none;" d="M190 196L191 197L190 196M199 196L200 197L199 196z"/>
<path style="fill:#c6c6c9; stroke:none;" d="M293 196L294 197L293 196z"/>
<path style="fill:#a39e9f; stroke:none;" d="M0 197C0.960938 203.082 7.02289 207.009 13 207C14.9475 210.41 17.1256 211.222 21 211L21 214L24 213L23 215L26 214L25 216L28 215C28.3668 218.173 29.9171 218.275 33 218L32 220C34.6489 219.47 35.607 219.572 35 222L38 221L37 223C39.6489 222.47 40.6069 222.572 40 225L43 224L42 226L45 225L44 227L47 226L47 229L50 228L49 230L52 229L51 231C53.6489 230.47 54.6069 230.572 54 233L57 232L56 234L59 233L59 236L60 236L59 234L60 234L61 237L64 236L63 238L66 240L69 239L68 241L71 240L70 242L73 241L75 245L78 244L77 246L80 245L80 248L81 248L80 246L81 246L82 249L85 248L84 250L87 249L87 252L88 252L87 250L88 250L89 253L92 252L91 254L94 253C94.3668 256.173 95.9171 256.275 99 256L98 258L101 257L101 260L102 260L101 258L102 258L103 261L108 261C108.784 264.751 111.396 265.207 115 265L114 267L117 266C118.955 275.416 135.164 279.493 141 272C130.489 275.371 112.104 259.468 103 254.281C68.9034 234.854 34.7277 215.272 0 197z"/>
<path style="fill:#98674c; stroke:none;" d="M101 197L102 198L101 197z"/>
<path style="fill:#655c58; stroke:none;" d="M102 197L103 198L102 197M114 197L117 199L114 197z"/>
<path style="fill:#98674c; stroke:none;" d="M122.667 197.333L123.333 197.667L122.667 197.333M126 197L127 198L126 197z"/>
<path style="fill:#655c58; stroke:none;" d="M193 197L193 198L196 198L193 197M271 209L254 215C256.424 223.161 270.754 223.136 268 213L273 214L271 209L275 213L277 213C279.322 210.031 286.964 203.835 283.928 199.427C280.606 194.601 271.521 205.83 271 209z"/>
<path style="fill:#98674c; stroke:none;" d="M288 197L289 198L288 197z"/>
<path style="fill:#a39e9f; stroke:none;" d="M289.333 197.667L289.667 198.333L289.333 197.667z"/>
<path style="fill:#655c58; stroke:none;" d="M292 197L293 198L292 197M298 197L299 198L298 197M97 198L96 199L101 202L101 201L97 198z"/>
<path style="fill:#c6c6c9; stroke:none;" d="M99 199C104.381 203.459 115.99 210.822 123 210C117.257 205.242 106.596 198.559 99 199z"/>
<path style="fill:#655c58; stroke:none;" d="M104 198L105 199L104 198z"/>
<path style="fill:#98674c; stroke:none;" d="M117 198L118 199L117 198M124.667 198.333L125.333 198.667L124.667 198.333M128 198L129 199L128 198z"/>
<path style="fill:#655c58; stroke:none;" d="M184.333 198.667L184.667 199.333L184.333 198.667M293 198L294 199L293 198z"/>
<path style="fill:#98674c; stroke:none;" d="M294.667 198.333L295.333 198.667L294.667 198.333z"/>
<path style="fill:#c6c6c9; stroke:none;" d="M296 198L297 199L296 198z"/>
<path style="fill:#655c58; stroke:none;" d="M106.667 199.333L107.333 199.667L106.667 199.333M118 199L118 200L122 201L122 200L118 199z"/>
<path style="fill:#a39e9f; stroke:none;" d="M120.667 199.333L121.333 199.667L120.667 199.333M131.667 199.333L132.333 199.667L131.667 199.333z"/>
<path style="fill:#98674c; stroke:none;" d="M155 199L156 200L155 199z"/>
<path style="fill:#655c58; stroke:none;" d="M295 199L295 200L298 200L295 199M108 200L108 201L124 209L124 210L111 207L111 208C116.939 211.631 120.564 213.586 127 210L127 209L108 200z"/>
<path style="fill:#c6c6c9; stroke:none;" d="M124 200L124 201L131 203L131 202L124 200z"/>
<path style="fill:#98674c; stroke:none;" d="M133 200L134 201L133 200z"/>
<path style="fill:#a39e9f; stroke:none;" d="M134 200L137 202L134 200z"/>
<path style="fill:#98674c; stroke:none;" d="M151 200L152 201L151 200z"/>
<path style="fill:#655c58; stroke:none;" d="M0 201L1 202L0 201z"/>
<path style="fill:#98674c; stroke:none;" d="M111 201L112 202L111 201z"/>
<path style="fill:#a39e9f; stroke:none;" d="M112 201L113 202L112 201z"/>
<path style="fill:#655c58; stroke:none;" d="M122 201L122 202L126 203L126 202L122 201z"/>
<path style="fill:#98674c; stroke:none;" d="M124 201L125 202L124 201M131 201L132 202L131 201M152 201L153 202L152 201z"/>
<path style="fill:#655c58; stroke:none;" d="M183.333 201.667L183.667 202.333L183.333 201.667M1 202L2 203L1 202M74 202L76 204L76 202L74 202M101.667 202.333L102.333 202.667L101.667 202.333z"/>
<path style="fill:#a39e9f; stroke:none;" d="M110 202L111 203L110 202M113.667 202.333L114.333 202.667L113.667 202.333z"/>
<path style="fill:#98674c; stroke:none;" d="M133 202L134 203L133 202z"/>
<path style="fill:#a39e9f; stroke:none;" d="M137 202L138 203L137 202z"/>
<path style="fill:#655c58; stroke:none;" d="M195.333 202.667L195.667 203.333L195.333 202.667z"/>
<path style="fill:#251e19; stroke:none;" d="M282 202L283 203L282 202z"/>
<path style="fill:#655c58; stroke:none;" d="M3 203L4 204L3 203M103.667 203.333L104.333 203.667L103.667 203.333z"/>
<path style="fill:#a39e9f; stroke:none;" d="M112 203L113 204L112 203z"/>
<path style="fill:#98674c; stroke:none;" d="M115 203L116 204L115 203z"/>
<path style="fill:#a39e9f; stroke:none;" d="M116 203L117 204L116 203z"/>
<path style="fill:#655c58; stroke:none;" d="M126 203L126 204L131 206L126 203z"/>
<path style="fill:#c6c6c9; stroke:none;" d="M131 203L132 204L131 203z"/>
<path style="fill:#a39e9f; stroke:none;" d="M136 203L137 204L136 203z"/>
<path style="fill:#98674c; stroke:none;" d="M149 203L150 204L149 203z"/>
<path style="fill:#655c58; stroke:none;" d="M0 204L0 206L2 204L0 204M4.66667 204.333L5.33333 204.667L4.66667 204.333M105.667 204.333L106.333 204.667L105.667 204.333z"/>
<path style="fill:#a39e9f; stroke:none;" d="M113.667 204.333L114.333 204.667L113.667 204.333M117.667 204.333L118.333 204.667L117.667 204.333z"/>
<path style="fill:#98674c; stroke:none;" d="M127 204L128 205L127 204z"/>
<path style="fill:#a39e9f; stroke:none;" d="M135 204L136 205L135 204z"/>
<path style="fill:#98674c; stroke:none;" d="M182 204L183 205L182 204z"/>
<path style="fill:#655c58; stroke:none;" d="M2 205L3 206L2 205M6 205L7 206L6 205M78 205L78 206L83 208L83 207L78 205z"/>
<path style="fill:#a39e9f; stroke:none;" d="M80 205L81 206L80 205z"/>
<path style="fill:#655c58; stroke:none;" d="M107.667 205.333L108.333 205.667L107.667 205.333z"/>
<path style="fill:#a39e9f; stroke:none;" d="M115.667 205.333L116.333 205.667L115.667 205.333M120 205L121 206L120 205M128.667 205.333L129.333 205.667L128.667 205.333z"/>
<path style="fill:#251e19; stroke:none;" d="M131.667 205.333L132.333 205.667L131.667 205.333z"/>
<path style="fill:#a39e9f; stroke:none;" d="M134 205L135 206L134 205z"/>
<path style="fill:#655c58; stroke:none;" d="M144.667 205.333L145.333 205.667L144.667 205.333M182 205L183 206L182 205M194 205L193 207L195 207L194 205M8 206L9 207L8 206z"/>
<path style="fill:#a39e9f; stroke:none;" d="M79 206L80 207L79 206M81.6667 206.333L82.3333 206.667L81.6667 206.333z"/>
<path style="fill:#655c58; stroke:none;" d="M109.667 206.333L110.333 206.667L109.667 206.333z"/>
<path style="fill:#a39e9f; stroke:none;" d="M117.667 206.333L118.333 206.667L117.667 206.333M122 206L123 207L122 206M130.667 206.333L131.333 206.667L130.667 206.333M133 206L134 207L133 206z"/>
<path style="fill:#655c58; stroke:none;" d="M120 220L144 207C137.946 205.993 123.153 214.844 120 220M10 207L11 208L10 207z"/>
<path style="fill:#c6c6c9; stroke:none;" d="M12 207L13 208L12 207z"/>
<path style="fill:#a39e9f; stroke:none;" d="M80 207L81 208L80 207M82 208L87 209L86 211L89 210L88 212L91 211L90 213L93 212L92 214L95 213L94 215L97 214L96 216L97 216L98 214L82 208M119 207L120 208L119 207M123.667 207.333L124.333 207.667L123.667 207.333z"/>
<path style="fill:#655c58; stroke:none;" d="M182.333 207.667L182.667 208.333L182.333 207.667M3 208L4 209L3 208M12 208L13 209L12 208z"/>
<path style="fill:#c6c6c9; stroke:none;" d="M14 208L14 209L17 210L14 208z"/>
<path style="fill:#655c58; stroke:none;" d="M84 208L85 209L84 208z"/>
<path style="fill:#a39e9f; stroke:none;" d="M115 208L116 209L115 208M121.667 208.333L122.333 208.667L121.667 208.333M126 208L127 209L126 208M137 208L138 209L137 208M141 208L142 209L141 208z"/>
<path style="fill:#655c58; stroke:none;" d="M13 209L14 210L13 209M85.6667 209.333L86.3333 209.667L85.6667 209.333z"/>
<path style="fill:#a39e9f; stroke:none;" d="M113 209L114 210L113 209M117 209L118 210L117 209M123 209L124 210L123 209z"/>
<path style="fill:#251e19; stroke:none;" d="M125 209L126 210L125 209z"/>
<path style="fill:#a39e9f; stroke:none;" d="M135 209L136 210L135 209M139 209L140 210L139 209z"/>
<path style="fill:#98674c; stroke:none;" d="M181 209L182 210L181 209z"/>
<path style="fill:#655c58; stroke:none;" d="M190 209L191 210L190 209M4 210L5 211L4 210M15 210L16 211L15 210z"/>
<path style="fill:#c6c6c9; stroke:none;" d="M18 210L19 211L18 210z"/>
<path style="fill:#655c58; stroke:none;" d="M87.6667 210.333L88.3333 210.667L87.6667 210.333z"/>
<path style="fill:#a39e9f; stroke:none;" d="M115 210L116 211L115 210M118.667 210.333L119.333 210.667L118.667 210.333M122 210L123 211L122 210M126 210L127 211L126 210M133.667 210.333L134.333 210.667L133.667 210.333M137.667 210.333L138.333 210.667L137.667 210.333z"/>
<path style="fill:#655c58; stroke:none;" d="M181 210L182 211L181 210M189 210L190 211L189 210M0 211L0.116512 237.286L0.603395 250.566L7 253L7 252L5 252L5 251L10 252L5 249L5 248L7 247L4 246L6 240L10 241L10 240L3 232L3 231L7 232L3 230L2 225L7 227L4 224C7.48679 219.835 5.96547 215.654 4 211L2 213L0 211M17 211L18 212L17 211z"/>
<path style="fill:#c6c6c9; stroke:none;" d="M19.6667 211.333L20.3333 211.667L19.6667 211.333z"/>
<path style="fill:#655c58; stroke:none;" d="M89.6667 211.333L90.3333 211.667L89.6667 211.333z"/>
<path style="fill:#a39e9f; stroke:none;" d="M116 211L117 212L116 211M120 211L121 212L120 211M124 211L125 212L124 211M132 211L133 212L132 211M135.667 211.333L136.333 211.667L135.667 211.333z"/>
<path style="fill:#655c58; stroke:none;" d="M188 211L189 212L188 211M19 212L20 213L19 212z"/>
<path style="fill:#c6c6c9; stroke:none;" d="M21 212L22 213L21 212z"/>
<path style="fill:#655c58; stroke:none;" d="M91.6667 212.333L92.3333 212.667L91.6667 212.333z"/>
<path style="fill:#a39e9f; stroke:none;" d="M118 212L119 213L118 212M122 212L123 213L122 212M130 212L131 213L130 212M133.667 212.333L134.333 212.667L133.667 212.333z"/>
<path style="fill:#655c58; stroke:none;" d="M180 212L181 213L180 212M7 213L8 214L7 213M10 213L12 215L10 213M20 213L21 214L20 213z"/>
<path style="fill:#c6c6c9; stroke:none;" d="M22.6667 213.333L23.3333 213.667L22.6667 213.333z"/>
<path style="fill:#655c58; stroke:none;" d="M93.6667 213.333L94.3333 213.667L93.6667 213.333z"/>
<path style="fill:#a39e9f; stroke:none;" d="M120 213L121 214L120 213M128 213L129 214L128 213M132 213L133 214L132 213z"/>
<path style="fill:#655c58; stroke:none;" d="M187 213L188 214L187 213M22 214L23 215L22 214z"/>
<path style="fill:#c6c6c9; stroke:none;" d="M24.6667 214.333L25.3333 214.667L24.6667 214.333z"/>
<path style="fill:#655c58; stroke:none;" d="M95.6667 214.333L96.3333 214.667L95.6667 214.333z"/>
<path style="fill:#a39e9f; stroke:none;" d="M126 214L127 215L126 214M130 214L131 215L130 214z"/>
<path style="fill:#655c58; stroke:none;" d="M180 214L181 215L180 214M24 215L25 216L24 215z"/>
<path style="fill:#c6c6c9; stroke:none;" d="M26.6667 215.333L27.3333 215.667L26.6667 215.333z"/>
<path style="fill:#655c58; stroke:none;" d="M97 215L97 216L108 220L97 215z"/>
<path style="fill:#a39e9f; stroke:none;" d="M99.6667 215.333L100.333 215.667L99.6667 215.333M124 215L125 216L124 215M128 215L129 216L128 215z"/>
<path style="fill:#c6c6c9; stroke:none;" d="M180.333 215.667L180.667 216.333L180.333 215.667z"/>
<path style="fill:#98674c; stroke:none;" d="M181 215L182 216L181 215z"/>
<path style="fill:#655c58; stroke:none;" d="M182 215L183 216L182 215M186 215L187 216L186 215z"/>
<path style="fill:#98674c; stroke:none;" d="M26 216L27 217L26 216z"/>
<path style="fill:#c6c6c9; stroke:none;" d="M28 216L29 217L28 216z"/>
<path style="fill:#a39e9f; stroke:none;" d="M98 216L99 217L98 216M101.667 216.333L102.333 216.667L101.667 216.333M122 216L123 217L122 216M126 216L127 217L126 216z"/>
<path style="fill:#655c58; stroke:none;" d="M183 216L184 217L183 216M185 216L186 217L185 216M8 217L8 218L11 219L8 217M27 217L28 218L27 217z"/>
<path style="fill:#c6c6c9; stroke:none;" d="M30 217L31 218L30 217z"/>
<path style="fill:#a39e9f; stroke:none;" d="M99.6667 217.333L100.333 217.667L99.6667 217.333M104 217L105 218L104 217M121 217L122 218L121 217M124 217L125 218L124 217z"/>
<path style="fill:#98674c; stroke:none;" d="M183 217L184 218L183 217z"/>
<path style="fill:#655c58; stroke:none;" d="M247 217L252 220L247 217M29 218L30 219L29 218z"/>
<path style="fill:#c6c6c9; stroke:none;" d="M31.6667 218.333L32.3333 218.667L31.6667 218.333z"/>
<path style="fill:#a39e9f; stroke:none;" d="M101 218L102 219L101 218M106 218L107 219L106 218M119 218L120 219L119 218M123 218L124 219L123 218z"/>
<path style="fill:#251e19; stroke:none;" d="M3 219L4 220L3 219z"/>
<path style="fill:#655c58; stroke:none;" d="M31 219L32 220L31 219z"/>
<path style="fill:#c6c6c9; stroke:none;" d="M33 219L36 221L36 220L33 219z"/>
<path style="fill:#a39e9f; stroke:none;" d="M103 219L104 220L103 219M108 219L109 220L108 219M117 219L118 220L117 219z"/>
<path style="fill:#655c58; stroke:none;" d="M118.333 219.667L118.667 220.333L118.333 219.667z"/>
<path style="fill:#251e19; stroke:none;" d="M119 219L120 220L119 219z"/>
<path style="fill:#a39e9f; stroke:none;" d="M121 219L122 220L121 219z"/>
<path style="fill:#98674c; stroke:none;" d="M181.333 219.667L181.667 220.333L181.333 219.667M33 220L34 221L33 220z"/>
<path style="fill:#a39e9f; stroke:none;" d="M105 220L106 221L105 220z"/>
<path style="fill:#251e19; stroke:none;" d="M107 220L107 221L115 225L116 221L107 220z"/>
<path style="fill:#655c58; stroke:none;" d="M109 220L110 221L109 220z"/>
<path style="fill:#a39e9f; stroke:none;" d="M110 220L111 221L110 220M115 220L116 221L115 220z"/>
<path style="fill:#655c58; stroke:none;" d="M116.333 220.667L116.667 221.333L116.333 220.667z"/>
<path style="fill:#251e19; stroke:none;" d="M117 220L118 221L117 220z"/>
<path style="fill:#a39e9f; stroke:none;" d="M119 220L120 221L119 220z"/>
<path style="fill:#655c58; stroke:none;" d="M180 220L179 222L181 222L180 220z"/>
<path style="fill:#c6c6c9; stroke:none;" d="M36.6667 221.333L37.3333 221.667L36.6667 221.333z"/>
<path style="fill:#a39e9f; stroke:none;" d="M107 221L108 222L107 221z"/>
<path style="fill:#655c58; stroke:none;" d="M108 221L109 222L108 221M111 221L112 222L111 221z"/>
<path style="fill:#a39e9f; stroke:none;" d="M112.667 221.333L113.333 221.667L112.667 221.333z"/>
<path style="fill:#98674c; stroke:none;" d="M114 221L115 222L114 221z"/>
<path style="fill:#a39e9f; stroke:none;" d="M117 221L118 222L117 221M147 221L147 222L152 224L152 225L147 229L149 227L155 228L153 231L156 233L161 231L163 233L164 234L163 236L174 238L172 234L175 233L160 228L147 221z"/>
<path style="fill:#655c58; stroke:none;" d="M148 221L149 222L148 221M36 222L37 223L36 222z"/>
<path style="fill:#c6c6c9; stroke:none;" d="M38 222L41 224L41 223L38 222z"/>
<path style="fill:#a39e9f; stroke:none;" d="M109 222L110 223L109 222z"/>
<path style="fill:#655c58; stroke:none;" d="M110 222L111 223L110 222z"/>
<path style="fill:#a39e9f; stroke:none;" d="M115 222L115 225L116 225L115 222z"/>
<path style="fill:#251e19; stroke:none;" d="M179.333 222.667L179.667 223.333L179.333 222.667z"/>
<path style="fill:#98674c; stroke:none;" d="M180 222L181 223L180 222z"/>
<path style="fill:#251e19; stroke:none;" d="M0 223L1 224L0 223z"/>
<path style="fill:#655c58; stroke:none;" d="M38 223L39 224L38 223z"/>
<path style="fill:#a39e9f; stroke:none;" d="M102 223L102 224L108 224L102 223M111 223L115 226L111 223z"/>
<path style="fill:#655c58; stroke:none;" d="M112 223L113 224L112 223M178 223L179 224L178 223z"/>
<path style="fill:#c6c6c9; stroke:none;" d="M41.6667 224.333L42.3333 224.667L41.6667 224.333z"/>
<path style="fill:#a39e9f; stroke:none;" d="M100 224L101 225L100 224z"/>
<path style="fill:#655c58; stroke:none;" d="M101 224L103 231L101 229L101 224z"/>
<path style="fill:#251e19; stroke:none;" d="M102 224L101 226L102 224z"/>
<path style="fill:#655c58; stroke:none;" d="M103 224L103 225L107 225L103 224z"/>
<path style="fill:#251e19; stroke:none;" d="M107 224L108 225L107 224z"/>
<path style="fill:#655c58; stroke:none;" d="M108 224L110 226L110 224L108 224z"/>
<path style="fill:#a39e9f; stroke:none;" d="M110 224L111 225L110 224z"/>
<path style="fill:#655c58; stroke:none;" d="M113 224L114 225L113 224z"/>
<path style="fill:#a39e9f; stroke:none;" d="M169.333 224.667L169.667 225.333L169.333 224.667z"/>
<path style="fill:#655c58; stroke:none;" d="M204 224L205 225L204 224z"/>
<path style="fill:#c6c6c9; stroke:none;" d="M43.6667 225.333L44.3333 225.667L43.6667 225.333z"/>
<path style="fill:#a39e9f; stroke:none;" d="M102 225L103 226L102 225z"/>
<path style="fill:#c6c6c9; stroke:none;" d="M102 226L104 232L110 226L102 226z"/>
<path style="fill:#a39e9f; stroke:none;" d="M107.667 225.333L108.333 225.667L107.667 225.333z"/>
<path style="fill:#251e19; stroke:none;" d="M110 225L110 226L114 232C116.972 228.994 112.718 226.456 110 225z"/>
<path style="fill:#655c58; stroke:none;" d="M111 225L112 226L111 225M148.333 225.667L148.667 226.333L148.333 225.667z"/>
<path style="fill:#c6c6c9; stroke:none;" d="M153 225L154 226L153 225z"/>
<path style="fill:#655c58; stroke:none;" d="M202 225L203 226L202 225M43 226L44 227L43 226z"/>
<path style="fill:#c6c6c9; stroke:none;" d="M45.6667 226.333L46.3333 226.667L45.6667 226.333z"/>
<path style="fill:#a39e9f; stroke:none;" d="M99.3333 226.667L99.6667 227.333L99.3333 226.667z"/>
<path style="fill:#251e19; stroke:none;" d="M100.333 226.667L100.667 227.333L100.333 226.667z"/>
<path style="fill:#a39e9f; stroke:none;" d="M109 227L110 230L114 230L111 226L109 227z"/>
<path style="fill:#c6c6c9; stroke:none;" d="M150 226L151 227L150 226z"/>
<path style="fill:#655c58; stroke:none;" d="M201 226L202 227L201 226M45 227L46 228L45 227z"/>
<path style="fill:#c6c6c9; stroke:none;" d="M47 227L48 228L47 227z"/>
<path style="fill:#a39e9f; stroke:none;" d="M102.333 227.667L102.667 228.333L102.333 227.667z"/>
<path style="fill:#655c58; stroke:none;" d="M112 227L113 228L112 227M114 227L115 228L114 227z"/>
<path style="fill:#98674c; stroke:none;" d="M149 227L150 228L149 227z"/>
<path style="fill:#655c58; stroke:none;" d="M156 227L155 230L156 227z"/>
<path style="fill:#98674c; stroke:none;" d="M160 227L161 228L160 227z"/>
<path style="fill:#655c58; stroke:none;" d="M200 227L201 228L200 227M6 228L7 229L6 228M46 228L47 229L46 228z"/>
<path style="fill:#c6c6c9; stroke:none;" d="M48.6667 228.333L49.3333 228.667L48.6667 228.333z"/>
<path style="fill:#251e19; stroke:none;" d="M101 228L102 229L101 228z"/>
<path style="fill:#655c58; stroke:none;" d="M108 228L110 230L108 228z"/>
<path style="fill:#251e19; stroke:none;" d="M109.667 228.333L110.333 228.667L109.667 228.333z"/>
<path style="fill:#a39e9f; stroke:none;" d="M115 228L116 229L115 228z"/>
<path style="fill:#655c58; stroke:none;" d="M149.667 228.333L150.333 228.667L149.667 228.333z"/>
<path style="fill:#98674c; stroke:none;" d="M162 228L163 229L162 228M198 228L199 229L198 228z"/>
<path style="fill:#655c58; stroke:none;" d="M199 228L200 229L199 228M48 229L49 230L48 229z"/>
<path style="fill:#c6c6c9; stroke:none;" d="M50.6667 229.333L51.3333 229.667L50.6667 229.333z"/>
<path style="fill:#a39e9f; stroke:none;" d="M100.333 229.667L100.667 230.333L100.333 229.667M103 229L104 230L103 229z"/>
<path style="fill:#98674c; stroke:none;" d="M106 229L107 230L106 229z"/>
<path style="fill:#251e19; stroke:none;" d="M106 231L109 230L106 231z"/>
<path style="fill:#c6c6c9; stroke:none;" d="M107 231L107 232L114 231L107 231z"/>
<path style="fill:#a39e9f; stroke:none;" d="M116 229L117 230L116 229z"/>
<path style="fill:#98674c; stroke:none;" d="M157 229L159 231L157 229z"/>
<path style="fill:#251e19; stroke:none;" d="M158 229L159 230L158 229z"/>
<path style="fill:#c6c6c9; stroke:none;" d="M160.667 229.333L161.333 229.667L160.667 229.333z"/>
<path style="fill:#655c58; stroke:none;" d="M183 229L181 232L183 229M197 229L198 230L197 229z"/>
<path style="fill:#251e19; stroke:none;" d="M0 230L1 231L0 230z"/>
<path style="fill:#655c58; stroke:none;" d="M50 230L51 231L50 230z"/>
<path style="fill:#c6c6c9; stroke:none;" d="M52 230L55 232L55 231L52 230z"/>
<path style="fill:#655c58; stroke:none;" d="M105 230L106 231L105 230M107 230L108 231L107 230z"/>
<path style="fill:#a39e9f; stroke:none;" d="M108 230L109 231L108 230z"/>
<path style="fill:#655c58; stroke:none;" d="M114 230L115 231L114 230z"/>
<path style="fill:#98674c; stroke:none;" d="M116 230L117 231L116 230z"/>
<path style="fill:#a39e9f; stroke:none;" d="M147 230L147 231L150 232L147 230z"/>
<path style="fill:#655c58; stroke:none;" d="M154 230L155 231L154 230M157.333 230.667L157.667 231.333L157.333 230.667M161 230L162 231L161 230z"/>
<path style="fill:#c6c6c9; stroke:none;" d="M163 230L164 231L163 230z"/>
<path style="fill:#655c58; stroke:none;" d="M196 230L197 231L196 230M8.66667 231.333L9.33333 231.667L8.66667 231.333z"/>
<path style="fill:#98674c; stroke:none;" d="M52 231L53 232L52 231M100 231L101 232L100 231z"/>
<path style="fill:#251e19; stroke:none;" d="M101 231L102 232L101 231z"/>
<path style="fill:#98674c; stroke:none;" d="M102 231L103 232L102 231z"/>
<path style="fill:#a39e9f; stroke:none;" d="M103 231L104 232L103 231M105.667 231.333L106.333 231.667L105.667 231.333M113 231L114 232L113 231M116 231L117 232L116 231z"/>
<path style="fill:#655c58; stroke:none;" d="M148 231L148 236L151 232L148 231M159.667 231.333L160.333 231.667L159.667 231.333z"/>
<path style="fill:#c6c6c9; stroke:none;" d="M162 231L163 232L162 231M164 231L165 232L164 231M166 231L167 232L166 231z"/>
<path style="fill:#655c58; stroke:none;" d="M195 231L196 232L195 231z"/>
<path style="fill:#c6c6c9; stroke:none;" d="M55.6667 232.333L56.3333 232.667L55.6667 232.333z"/>
<path style="fill:#655c58; stroke:none;" d="M101 232L101 233L115 233L101 232z"/>
<path style="fill:#a39e9f; stroke:none;" d="M115 232L116 233L115 232M144 232L144 233L148 236L148 232L144 232z"/>
<path style="fill:#98674c; stroke:none;" d="M149 232L150 233L149 232z"/>
<path style="fill:#a39e9f; stroke:none;" d="M151 232L152 233L151 232z"/>
<path style="fill:#c6c6c9; stroke:none;" d="M168 232L168 234L170 232L168 232z"/>
<path style="fill:#655c58; stroke:none;" d="M193 232L194 233L193 232z"/>
<path style="fill:#251e19; stroke:none;" d="M1 233L1 234L4 234L1 233z"/>
<path style="fill:#655c58; stroke:none;" d="M55 233L56 234L55 233z"/>
<path style="fill:#c6c6c9; stroke:none;" d="M57.6667 233.333L58.3333 233.667L57.6667 233.333z"/>
<path style="fill:#a39e9f; stroke:none;" d="M103.667 233.333L104.333 233.667L103.667 233.333z"/>
<path style="fill:#98674c; stroke:none;" d="M111 233L112 234L111 233z"/>
<path style="fill:#a39e9f; stroke:none;" d="M112.667 233.333L113.333 233.667L112.667 233.333z"/>
<path style="fill:#655c58; stroke:none;" d="M144.667 233.333L145.333 233.667L144.667 233.333z"/>
<path style="fill:#98674c; stroke:none;" d="M148 233L149 234L148 233z"/>
<path style="fill:#a39e9f; stroke:none;" d="M153 233L150 237C152.891 237.912 153.32 237.54 155 235L155 238L157 237L156 240L163 242L163 238L153 233z"/>
<path style="fill:#655c58; stroke:none;" d="M162 233L164 235L162 233z"/>
<path style="fill:#c6c6c9; stroke:none;" d="M164.667 233.333L165.333 233.667L164.667 233.333z"/>
<path style="fill:#655c58; stroke:none;" d="M167 233L166 234L169 236L167 233z"/>
<path style="fill:#c6c6c9; stroke:none;" d="M171 233L172 234L171 233z"/>
<path style="fill:#98674c; stroke:none;" d="M174 233L174 234L180 236L180 235L174 233z"/>
<path style="fill:#a39e9f; stroke:none;" d="M176 233L177 234L176 233z"/>
<path style="fill:#c6c6c9; stroke:none;" d="M182 233L183 234L182 233M184 233L185 234L184 233z"/>
<path style="fill:#98674c; stroke:none;" d="M192 233L193 234L192 233z"/>
<path style="fill:#655c58; stroke:none;" d="M10 234L8 235L8 238L14 242L15 242L11 238L13 236L10 234M57 234L58 235L57 234z"/>
<path style="fill:#c6c6c9; stroke:none;" d="M59 234L62 236L59 234z"/>
<path style="fill:#a39e9f; stroke:none;" d="M144 234L145 235L144 234z"/>
<path style="fill:#98674c; stroke:none;" d="M145 234L146 235L145 234M162 234L163 235L162 234z"/>
<path style="fill:#251e19; stroke:none;" d="M169 234L170 235L169 234z"/>
<path style="fill:#a39e9f; stroke:none;" d="M175 234L176 235L175 234M178.667 234.333L179.333 234.667L178.667 234.333z"/>
<path style="fill:#655c58; stroke:none;" d="M191 234L192 235L191 234z"/>
<path style="fill:#251e19; stroke:none;" d="M0 235L1 236L0 235M3 235L3 236L6 236L3 235z"/>
<path style="fill:#c6c6c9; stroke:none;" d="M154 235L155 236L154 235z"/>
<path style="fill:#655c58; stroke:none;" d="M156 235L157 236L156 235z"/>
<path style="fill:#a39e9f; stroke:none;" d="M177 235L178 236L177 235M180 235L179 237L181 237L180 235z"/>
<path style="fill:#251e19; stroke:none;" d="M10 236L11 237L10 236z"/>
<path style="fill:#655c58; stroke:none;" d="M60 236L61 237L60 236z"/>
<path style="fill:#c6c6c9; stroke:none;" d="M62.6667 236.333L63.3333 236.667L62.6667 236.333z"/>
<path style="fill:#98674c; stroke:none;" d="M154 236L155 237L154 236z"/>
<path style="fill:#655c58; stroke:none;" d="M155 236L156 237L155 236z"/>
<path style="fill:#c6c6c9; stroke:none;" d="M171 236L172 237L171 236z"/>
<path style="fill:#98674c; stroke:none;" d="M172 236L173 237L172 236z"/>
<path style="fill:#655c58; stroke:none;" d="M188 236L189 237L188 236z"/>
<path style="fill:#251e19; stroke:none;" d="M4 237L5 238L4 237z"/>
<path style="fill:#655c58; stroke:none;" d="M62 237L63 238L62 237z"/>
<path style="fill:#c6c6c9; stroke:none;" d="M64 237L65 238L64 237z"/>
<path style="fill:#655c58; stroke:none;" d="M154 237L155 238L154 237M158 237L159 238L158 237M172 237L173 238L172 237M187 237L188 238L187 237M16 238L17 239L16 238M64 238L65 239L64 238z"/>
<path style="fill:#c6c6c9; stroke:none;" d="M66 238L67 239L66 238M159 238L161 241L159 238z"/>
<path style="fill:#655c58; stroke:none;" d="M163.333 238.667L163.667 239.333L163.333 238.667z"/>
<path style="fill:#a39e9f; stroke:none;" d="M164 238L168 241L168 240L164 238z"/>
<path style="fill:#655c58; stroke:none;" d="M186 238L187 239L186 238z"/>
<path style="fill:#c6c6c9; stroke:none;" d="M67.6667 239.333L68.3333 239.667L67.6667 239.333z"/>
<path style="fill:#98674c; stroke:none;" d="M159 239L160 240L159 239z"/>
<path style="fill:#251e19; stroke:none;" d="M3 240L3 243L5 243L5 240L3 240z"/>
<path style="fill:#655c58; stroke:none;" d="M67 240L68 241L67 240z"/>
<path style="fill:#c6c6c9; stroke:none;" d="M69.6667 240.333L70.3333 240.667L69.6667 240.333z"/>
<path style="fill:#251e19; stroke:none;" d="M162 240L163 241L162 240z"/>
<path style="fill:#98674c; stroke:none;" d="M163 240L164 241L163 240M183 240L184 241L183 240z"/>
<path style="fill:#655c58; stroke:none;" d="M69 241L70 242L69 241z"/>
<path style="fill:#c6c6c9; stroke:none;" d="M71 241L74 243L71 241z"/>
<path style="fill:#655c58; stroke:none;" d="M161 241L162 242L161 241M166 241L165 243L167 243L166 241z"/>
<path style="fill:#98674c; stroke:none;" d="M167 241L168 242L167 241z"/>
<path style="fill:#655c58; stroke:none;" d="M182 241L183 242L182 241M17 242L18 243L17 242M71 242L72 243L71 242z"/>
<path style="fill:#a39e9f; stroke:none;" d="M164 242L165 243L164 242z"/>
<path style="fill:#98674c; stroke:none;" d="M73 243L74 244L73 243z"/>
<path style="fill:#c6c6c9; stroke:none;" d="M75 243L76 244L75 243z"/>
<path style="fill:#98674c; stroke:none;" d="M164.667 243.333L165.333 243.667L164.667 243.333z"/>
<path style="fill:#a39e9f; stroke:none;" d="M166 243L167 244L166 243M178 243L176 246L178 243z"/>
<path style="fill:#655c58; stroke:none;" d="M179 243L180 244L179 243M74 244L75 245L74 244z"/>
<path style="fill:#c6c6c9; stroke:none;" d="M76.6667 244.333L77.3333 244.667L76.6667 244.333z"/>
<path style="fill:#a39e9f; stroke:none;" d="M164 244L165 245L164 244z"/>
<path style="fill:#655c58; stroke:none;" d="M178 244L179 245L178 244z"/>
<path style="fill:#251e19; stroke:none;" d="M1.66667 245.333L2.33333 245.667L1.66667 245.333z"/>
<path style="fill:#655c58; stroke:none;" d="M76 245L77 246L76 245z"/>
<path style="fill:#c6c6c9; stroke:none;" d="M78.6667 245.333L79.3333 245.667L78.6667 245.333z"/>
<path style="fill:#655c58; stroke:none;" d="M177 245L178 246L177 245z"/>
<path style="fill:#98674c; stroke:none;" d="M78 246L79 247L78 246z"/>
<path style="fill:#c6c6c9; stroke:none;" d="M80 246L83 248L80 246z"/>
<path style="fill:#a39e9f; stroke:none;" d="M174 246L173 248L174 246z"/>
<path style="fill:#98674c; stroke:none;" d="M175 246L176 247L175 246z"/>
<path style="fill:#655c58; stroke:none;" d="M174 247L175 248L174 247M11.3333 248.667L11.6667 249.333L11.3333 248.667M81 248L82 249L81 248z"/>
<path style="fill:#c6c6c9; stroke:none;" d="M83.6667 248.333L84.3333 248.667L83.6667 248.333z"/>
<path style="fill:#a39e9f; stroke:none;" d="M172 248L173 249L172 248z"/>
<path style="fill:#655c58; stroke:none;" d="M13 249L16 251L16 250L13 249M83 249L84 250L83 249z"/>
<path style="fill:#c6c6c9; stroke:none;" d="M85.6667 249.333L86.3333 249.667L85.6667 249.333z"/>
<path style="fill:#98674c; stroke:none;" d="M171 249L172 250L171 249z"/>
<path style="fill:#251e19; stroke:none;" d="M3 250L4 251L3 250z"/>
<path style="fill:#98674c; stroke:none;" d="M85 250L86 251L85 250z"/>
<path style="fill:#c6c6c9; stroke:none;" d="M87 250L90 252L87 250z"/>
<path style="fill:#a39e9f; stroke:none;" d="M169 250L168 252L169 250z"/>
<path style="fill:#655c58; stroke:none;" d="M170 250L171 251L170 250M17 251L18 252L17 251M169 251L170 252L169 251M88 252L89 253L88 252z"/>
<path style="fill:#c6c6c9; stroke:none;" d="M90.6667 252.333L91.3333 252.667L90.6667 252.333z"/>
<path style="fill:#a39e9f; stroke:none;" d="M167 252L168 253L167 252z"/>
<path style="fill:#655c58; stroke:none;" d="M7.66667 253.333L8.33333 253.667L7.66667 253.333M90 253L91 254L90 253z"/>
<path style="fill:#c6c6c9; stroke:none;" d="M92.6667 253.333L93.3333 253.667L92.6667 253.333z"/>
<path style="fill:#a39e9f; stroke:none;" d="M165 253L164 255L165 253z"/>
<path style="fill:#655c58; stroke:none;" d="M166 253L167 254L166 253M1 254C-0.406884 258.76 -1.65821 266.122 4 268L4 267L1 264L6 265L8 262L1 261L1 260L5 260L6 260L1 254z"/>
<path style="fill:#98674c; stroke:none;" d="M92 254L93 255L92 254z"/>
<path style="fill:#c6c6c9; stroke:none;" d="M94 254L95 255L94 254z"/>
<path style="fill:#655c58; stroke:none;" d="M165 254L166 255L165 254z"/>
<path style="fill:#c6c6c9; stroke:none;" d="M96 255L97 256L96 255z"/>
<path style="fill:#98674c; stroke:none;" d="M163 255L164 256L163 255z"/>
<path style="fill:#655c58; stroke:none;" d="M95 256L96 257L95 256z"/>
<path style="fill:#c6c6c9; stroke:none;" d="M97.6667 256.333L98.3333 256.667L97.6667 256.333z"/>
<path style="fill:#98674c; stroke:none;" d="M162 256L163 257L162 256z"/>
<path style="fill:#655c58; stroke:none;" d="M9 259L12 258L9 259M97 257L98 258L97 257z"/>
<path style="fill:#c6c6c9; stroke:none;" d="M99.6667 257.333L100.333 257.667L99.6667 257.333z"/>
<path style="fill:#a39e9f; stroke:none;" d="M160 257L161 258L160 257z"/>
<path style="fill:#655c58; stroke:none;" d="M161 257L162 258L161 257M7 258L8 259L7 258M13 258L14 259L13 258z"/>
<path style="fill:#98674c; stroke:none;" d="M99 258L100 259L99 258z"/>
<path style="fill:#c6c6c9; stroke:none;" d="M101 258L104 260L101 258z"/>
<path style="fill:#a39e9f; stroke:none;" d="M159 258L160 259L159 258z"/>
<path style="fill:#655c58; stroke:none;" d="M11.3333 259.667L11.6667 260.333L11.3333 259.667M100 259L101 260L100 259z"/>
<path style="fill:#98674c; stroke:none;" d="M158 259L159 260L158 259z"/>
<path style="fill:#655c58; stroke:none;" d="M102 260L103 261L102 260z"/>
<path style="fill:#c6c6c9; stroke:none;" d="M105 260L106 261L105 260z"/>
<path style="fill:#a39e9f; stroke:none;" d="M156 260L155 262L156 260z"/>
<path style="fill:#655c58; stroke:none;" d="M157 260L158 261L157 260M9 261L10 262L9 261M104 261L105 262L104 261z"/>
<path style="fill:#c6c6c9; stroke:none;" d="M106.667 261.333L107.333 261.667L106.667 261.333z"/>
<path style="fill:#655c58; stroke:none;" d="M156 261L157 262L156 261M11 262L12 263L11 262M106 262L107 263L106 262z"/>
<path style="fill:#c6c6c9; stroke:none;" d="M108 262L108 263L111 264L108 262z"/>
<path style="fill:#a39e9f; stroke:none;" d="M153 262L150 266L153 262z"/>
<path style="fill:#98674c; stroke:none;" d="M154 262L155 263L154 262z"/>
<path style="fill:#655c58; stroke:none;" d="M107 263L108 264L107 263M153 263L154 264L153 263M109 264L110 265L109 264z"/>
<path style="fill:#c6c6c9; stroke:none;" d="M112 264L113 265L112 264z"/>
<path style="fill:#655c58; stroke:none;" d="M152 264L153 265L152 264M111 265L112 266L111 265z"/>
<path style="fill:#c6c6c9; stroke:none;" d="M113.667 265.333L114.333 265.667L113.667 265.333z"/>
<path style="fill:#655c58; stroke:none;" d="M151 265L152 266L151 265M112 266L113 267L112 266z"/>
<path style="fill:#98674c; stroke:none;" d="M113 266L114 267L113 266z"/>
<path style="fill:#c6c6c9; stroke:none;" d="M115.667 266.333L116.333 266.667L115.667 266.333z"/>
<path style="fill:#a39e9f; stroke:none;" d="M148 266L146 269L148 266z"/>
<path style="fill:#98674c; stroke:none;" d="M149 266L150 267L149 266M115 267L116 268L115 267z"/>
<path style="fill:#c6c6c9; stroke:none;" d="M117 267L117 268L120 269L117 267z"/>
<path style="fill:#655c58; stroke:none;" d="M148 267L149 268L148 267M6.66667 268.333L7.33333 268.667L6.66667 268.333M116 268L117 269L116 268M147 268L148 269L147 268M118 269L119 270L118 269z"/>
<path style="fill:#c6c6c9; stroke:none;" d="M121 269L122 270L121 269z"/>
<path style="fill:#a39e9f; stroke:none;" d="M142 272L146 270L142 272z"/>
<path style="fill:#98674c; stroke:none;" d="M120 270L121 271L120 270z"/>
<path style="fill:#c6c6c9; stroke:none;" d="M123 270L124 271L123 270z"/>
<path style="fill:#655c58; stroke:none;" d="M144 270L145 271L144 270M0 271C0.00335794 275.346 -0.699803 279.44 4 281L0 271M121 271L122 272L121 271z"/>
<path style="fill:#98674c; stroke:none;" d="M122 271L123 272L122 271z"/>
<path style="fill:#c6c6c9; stroke:none;" d="M125 271L125 272L136 276L125 271z"/>
<path style="fill:#655c58; stroke:none;" d="M143 271L144 272L143 271M123 272L124 273L123 272z"/>
<path style="fill:#98674c; stroke:none;" d="M141 272L142 273L141 272z"/>
<path style="fill:#655c58; stroke:none;" d="M142 272L143 273L142 272M125 273L126 274L125 273z"/>
<path style="fill:#98674c; stroke:none;" d="M140 273L141 274L140 273M127 274L128 275L127 274z"/>
<path style="fill:#655c58; stroke:none;" d="M139 274L140 275L139 274M128 275L129 276L128 275z"/>
<path style="fill:#98674c; stroke:none;" d="M129 275L130 276L129 275M137 275L138 276L137 275z"/>
<path style="fill:#655c58; stroke:none;" d="M138 275L139 276L138 275M130 276L131 277L130 276M137 276L138 277L137 276M132 277L133 278L132 277z"/>
<path style="fill:#98674c; stroke:none;" d="M135 277L136 278L135 277z"/>
<path style="fill:#655c58; stroke:none;" d="M136 277L137 278L136 277M134 278L135 279L134 278M0 296L1 297L0 296z"/>
</svg>
