<svg width="21" height="21" viewBox="0 0 24 21" fill="none" xmlns="http://www.w3.org/2000/svg">
<path fill-rule="evenodd" clip-rule="evenodd" d="M11.561 0C11.9416 0 12.2892 0.216101 12.4577 0.557441L15.3109 6.33878L21.6904 7.26334C22.0673 7.31797 22.3804 7.58193 22.4981 7.94414C22.6157 8.30636 22.5174 8.70394 22.2445 8.96958L17.6215 13.4696L18.7116 19.8239C18.776 20.1993 18.6216 20.5786 18.3134 20.8022C18.0052 21.026 17.5967 21.0553 17.2598 20.8777L11.5674 17.878L5.86134 20.8782C5.52441 21.0553 5.11614 21.0258 4.80819 20.8021C4.50024 20.5783 4.34601 20.1992 4.41037 19.8239L5.50041 13.4696L0.877464 8.96958C0.604574 8.70394 0.506247 8.30636 0.623874 7.94414C0.741494 7.58193 1.05465 7.31797 1.43155 7.26334L7.81101 6.33878L10.6642 0.557441C10.8327 0.216101 11.1803 0 11.561 0Z" fill="black"/> <!--fill="url(#paint0_linear_239_4353)"-->
<defs>
<!--<linearGradient id="paint0_linear_239_4353" x1="0.57495" y1="10.464" x2="150.546" y2="10.464" gradientUnits="userSpaceOnUse">
<stop offset="0.140625" stop-color="#B16CEA"/>
<stop offset="0.447917" stop-color="#FF5E69"/>
<stop offset="0.71875" stop-color="#FF8A56"/>
<stop offset="1" stop-color="#FFA84B"/>
</linearGradient>-->
</defs>
</svg>
